# Blender v2.78 (sub 0) OBJ File: '15.blend'
# www.blender.org
mtllib Shrimp_01.mtl
g Shrimp_Circle.007
v 0.000000 8.175205 4.917615
v -1.031055 7.638123 4.667776
v -1.458132 6.341491 4.064612
v -1.031055 5.044859 3.461447
v 0.000000 4.507776 3.211609
v 1.031055 5.044859 3.461448
v 1.458132 6.341491 4.064612
v 1.031055 7.638123 4.667776
v 0.000000 9.377340 3.248966
v -1.116400 8.771500 3.038429
v -1.578828 7.308870 2.530147
v -1.116400 5.846242 2.021865
v 0.000000 5.240402 1.811328
v 1.116401 5.846242 2.021865
v 1.578829 7.308871 2.530147
v 1.116401 8.771500 3.038429
v -1.116400 6.500778 0.787655
v 0.000000 5.862074 0.729122
v 1.116401 6.500778 0.787655
v -1.116400 6.164251 -0.902852
v 0.000000 5.579596 -0.639134
v 1.116401 6.164251 -0.902852
v -0.972970 5.221043 -1.677420
v 0.000000 4.895111 -1.223300
v 0.972970 5.221043 -1.677421
v -0.841291 3.932328 -2.142990
v 0.000000 3.901632 -1.660638
v 0.841291 3.932328 -2.142990
v -0.716564 2.958173 -1.754776
v 0.000000 3.149059 -1.519023
v 0.716565 2.958173 -1.754776
v 0.000000 0.075038 -0.600656
v -0.570563 0.389044 -0.506595
v -0.806898 1.147126 -0.279512
v -0.570563 1.905207 -0.052429
v 0.000000 2.030487 0.041632
v 0.570564 1.905207 -0.052429
v 0.806899 1.147126 -0.279512
v 0.570564 0.389044 -0.506595
v 0.000000 0.792511 -0.188674
v -0.317467 0.512405 -0.316752
v -0.498599 1.143980 -0.162655
v -0.285803 1.668036 0.061076
v 0.000000 1.646826 0.131297
v 0.285803 1.668036 0.061076
v 0.498599 1.143980 -0.162655
v 0.317467 0.512405 -0.316752
v -0.231521 0.099273 2.868165
v 0.000000 0.057126 1.414412
v 0.370244 -0.134256 2.769348
v 0.370244 1.978572 2.736332
v 0.499779 0.922158 2.752840
v -0.370243 1.978572 2.736332
v -0.370243 -0.134256 2.769348
v -0.499779 0.922158 2.752840
v -0.330800 0.965252 2.848537
v -0.214166 1.722446 2.867781
v 0.214166 1.722446 2.867781
v 0.330800 0.965252 2.848537
v 0.231522 0.099273 2.868165
v 0.000000 7.441026 4.768617
v -0.683469 7.085003 4.603002
v -0.966572 6.225486 4.203175
v -0.683469 5.365971 3.803347
v 0.000000 5.009947 3.637733
v 0.683470 5.365971 3.803347
v 0.966572 6.225486 4.203175
v 0.683470 7.085003 4.603002
v 0.000000 6.840580 4.584612
v -0.398033 6.633242 4.488163
v -0.562904 6.132683 4.255314
v -0.398033 5.632124 4.022466
v 0.000000 5.424787 3.926017
v 0.398034 5.632124 4.022466
v 0.562905 6.132683 4.255314
v 0.398034 6.633242 4.488163
v 0.000000 6.132683 4.255314
v 0.000000 10.162707 1.280942
v 0.000000 10.194107 0.968271
v -1.116400 9.555172 0.909764
v -1.116400 9.522110 1.221791
v -1.578829 7.985771 0.982282
v -1.578829 8.000253 0.865821
v -1.320648 7.181844 0.850070
v 1.578829 8.000253 0.865821
v 1.578829 7.985771 0.982282
v 1.336163 7.233577 0.854811
v 1.116401 9.555172 0.909764
v 1.116401 9.522110 1.221791
v 0.000000 9.601051 -2.280090
v 0.000000 9.436209 -2.544198
v -1.107644 8.853370 -2.279603
v -1.116400 9.016622 -2.016429
v -1.573532 7.555524 -1.462205
v -1.567201 7.495306 -1.560372
v -1.359430 6.906059 -1.237454
v 1.567202 7.495306 -1.560372
v 1.573533 7.555524 -1.462205
v 1.310545 6.756845 -1.170149
v 1.107644 8.853370 -2.279603
v 1.116401 9.016622 -2.016429
v 0.000000 7.247304 -4.226911
v 0.000000 6.956590 -4.358591
v -0.965104 6.632657 -3.906059
v -0.981240 6.921196 -3.772437
v -1.382548 6.044832 -2.719134
v -1.371025 5.939282 -2.771666
v -1.186010 5.636992 -2.256962
v 1.371026 5.939282 -2.771666
v 1.382549 6.044832 -2.719134
v 1.173066 5.611719 -2.221749
v 0.965105 6.632657 -3.906059
v 0.981240 6.921196 -3.772437
v 0.000000 4.268441 -4.921429
v 0.000000 3.957747 -4.872312
v -0.833875 3.928225 -4.391938
v -0.848923 4.237867 -4.437106
v -1.195087 4.067044 -3.255643
v -1.184008 3.952046 -3.243649
v -0.970055 3.959712 -2.573284
v 1.184008 3.952046 -3.243649
v 1.195087 4.067044 -3.255642
v 1.008165 3.967817 -2.700636
v 0.833875 3.928225 -4.391938
v 0.848923 4.237867 -4.437106
v 0.000000 1.365630 -3.486984
v 0.000000 1.157968 -3.255822
v -0.708152 1.453668 -2.974695
v -0.723695 1.665216 -3.202567
v -1.019382 2.318995 -2.445927
v -1.008648 2.235702 -2.364705
v -0.836216 2.668041 -2.031081
v 1.008649 2.235702 -2.364705
v 1.019382 2.318995 -2.445927
v 0.819771 2.707918 -1.993104
v 0.708152 1.453668 -2.974695
v 0.723695 1.665216 -3.202567
v 0.696293 1.361904 -2.761962
v 0.000000 1.064627 -3.026965
v -0.696293 1.361904 -2.761962
v -0.991259 2.141874 -2.184977
v 0.991259 2.141874 -2.184977
v -0.703980 2.867415 -1.608045
v 0.703980 2.867415 -1.608045
v 0.000000 3.052646 -1.384506
vn -0.9580 -0.2707 -0.0946
vn -0.4864 0.7071 0.5133
vn 0.4864 0.7071 0.5133
vn 0.9580 -0.2707 -0.0946
vn -0.4959 -0.7702 -0.4011
vn -0.9521 0.2225 0.2097
vn 0.9521 0.2225 0.2097
vn 0.4959 -0.7702 -0.4011
vn 0.9576 0.2829 -0.0539
vn -0.4795 -0.7686 -0.4235
vn -0.9576 0.2829 -0.0539
vn 0.9544 -0.2687 -0.1300
vn 0.4795 -0.7686 -0.4235
vn -0.9540 -0.2945 0.0563
vn 0.4856 0.8599 -0.1576
vn -0.4856 0.8599 -0.1576
vn -0.9570 0.2669 0.1132
vn 0.4904 0.8075 0.3277
vn 0.9570 0.2669 0.1132
vn -0.4854 -0.8569 0.1734
vn -0.9544 -0.2687 -0.1299
vn 0.4727 0.5287 -0.7050
vn 0.4854 -0.8569 0.1734
vn 0.9540 -0.2944 0.0565
vn 0.4785 0.1743 -0.8606
vn 0.4798 -0.5868 0.6523
vn 0.9535 -0.2575 0.1569
vn -0.9480 0.1377 -0.2869
vn -0.4727 0.5287 -0.7050
vn 0.9480 0.1377 -0.2869
vn -0.4798 -0.5868 0.6523
vn -0.9535 -0.2574 0.1570
vn -0.9509 -0.1700 0.2587
vn 0.4573 -0.4247 -0.7813
vn 0.4832 -0.3461 0.8042
vn 0.9508 -0.1703 0.2587
vn -0.9519 0.0077 -0.3063
vn -0.4785 0.1743 -0.8606
vn 0.9519 0.0077 -0.3063
vn -0.4832 -0.3461 0.8042
vn -0.4573 -0.4247 -0.7813
vn 0.9478 -0.1953 -0.2519
vn -0.4267 0.2370 0.8728
vn -0.9443 0.0441 0.3261
vn 0.4267 0.2370 0.8728
vn 0.9443 0.0447 0.3259
vn -0.9478 -0.1953 -0.2519
vn 0.9551 0.2181 0.2003
vn -0.9552 0.2190 0.1992
vn -0.4904 0.8075 0.3277
vn 0.9492 -0.3058 -0.0738
vn -0.4731 -0.8169 -0.3297
vn -0.9492 -0.3058 -0.0738
vn 0.4731 -0.8169 -0.3297
vn 0.3725 0.7648 0.5257
vn -0.3725 0.7648 0.5257
vn 0.4843 -0.8115 -0.3271
vn -0.9534 -0.2939 -0.0679
vn -0.4843 -0.8115 -0.3271
vn 0.9534 -0.2939 -0.0679
vn -0.3234 0.7810 0.5342
vn 0.3234 0.7810 0.5342
vn 0.5922 0.7459 0.3048
vn 0.9823 0.1859 -0.0225
vn -0.2092 0.2161 0.9537
vn -0.9776 -0.2034 0.0545
vn 0.2092 0.2161 0.9537
vn -0.7186 -0.6831 -0.1308
vn -0.7573 0.6511 -0.0517
vn 0.7573 0.6511 -0.0517
vn -0.1429 -0.2731 0.9513
vn 0.6963 0.6524 0.2993
vn -0.6963 0.6524 0.2993
vn 0.2090 -0.3307 0.9203
vn -0.2090 -0.3307 0.9203
vn 0.1429 -0.2731 0.9513
vn 0.4831 -0.8755 -0.0078
vn -0.5053 -0.0439 0.8618
vn -0.5392 0.0719 0.8391
vn 0.5053 -0.0439 0.8618
vn -0.5922 0.7459 0.3048
vn -0.4831 -0.8755 -0.0078
vn 0.5392 0.0719 0.8391
vn 0.9783 0.1868 0.0901
vn -0.9695 -0.2407 -0.0450
vn -0.9783 0.1868 0.0901
vn 0.9695 -0.2407 -0.0450
vn 0.7186 -0.6831 -0.1308
vn 0.9776 -0.2034 0.0545
vn -0.9823 0.1859 -0.0225
vn -0.9532 -0.3000 -0.0373
vn 0.9529 -0.3011 -0.0374
vn -0.9547 -0.2772 0.1085
vn 0.9553 -0.2753 0.1073
vn -0.9526 -0.2124 0.2177
vn 0.9529 -0.2119 0.2168
vn -0.9507 -0.0599 0.3041
vn 0.9492 -0.0592 0.3091
vn -0.9454 0.1567 0.2856
vn 0.9462 0.1550 0.2840
vn -0.4988 0.8622 0.0890
vn -0.9584 0.2838 0.0315
vn 0.9584 0.2838 0.0315
vn 0.4988 0.8622 0.0890
vn -0.4955 0.7338 -0.4648
vn -0.9564 0.2290 -0.1815
vn 0.9564 0.2290 -0.1815
vn 0.4955 0.7338 -0.4648
vn -0.4894 0.3518 -0.7980
vn -0.9517 0.0740 -0.2981
vn 0.9517 0.0740 -0.2981
vn 0.4894 0.3518 -0.7980
vn -0.4884 -0.1427 -0.8609
vn -0.9518 -0.0977 -0.2906
vn 0.9518 -0.0977 -0.2906
vn 0.4884 -0.1427 -0.8609
vn -0.4972 -0.6490 -0.5758
vn -0.9560 -0.2486 -0.1559
vn 0.9560 -0.2486 -0.1559
vn 0.4972 -0.6490 -0.5758
vn -0.9519 0.2209 0.2123
vn 0.9519 0.2209 0.2123
vn -0.3249 -0.3088 0.8939
vn 0.3249 -0.3088 0.8939
vn 0.1505 -0.6396 0.7538
vn -0.3415 -0.4866 0.8041
vn -0.1327 -0.1971 0.9714
vn 0.1327 -0.1971 0.9714
vn 0.3415 -0.4866 0.8041
vn -0.1505 -0.6396 0.7538
vn 0.0788 -0.2921 0.9531
vn 0.2185 -0.4698 0.8553
vn -0.0978 -0.5679 0.8172
vn -0.2002 -0.3583 0.9119
vn 0.2002 -0.3583 0.9119
vn 0.0978 -0.5679 0.8172
vn -0.2185 -0.4698 0.8553
vn -0.0788 -0.2921 0.9531
vn 0.0000 -0.4218 0.9067
usemtl F8BBD0
s off
f 3//1 11//1 12//1 4//1
f 1//2 9//2 10//2 2//2
f 8//3 16//3 9//3 1//3
f 6//4 14//4 15//4 7//4
f 4//5 12//5 13//5 5//5
f 2//6 10//6 11//6 3//6
f 7//7 15//7 16//7 8//7
f 5//8 13//8 14//8 6//8
f 85//9 98//9 101//9 88//9
f 12//10 17//10 18//10 13//10
f 80//11 93//11 94//11 83//11
f 14//12 19//12 87//12 86//12 15//12
f 13//13 18//13 19//13 14//13
f 84//14 83//14 94//14 96//14 20//14 17//14
f 88//15 101//15 90//15 79//15
f 79//16 90//16 93//16 80//16
f 10//17 81//17 82//17 11//17
f 16//18 89//18 78//18 9//18
f 15//19 86//19 89//19 16//19
f 17//20 20//20 21//20 18//20
f 11//21 82//21 84//21 17//21 12//21
f 100//22 113//22 102//22 91//22
f 18//23 21//23 22//23 19//23
f 19//24 22//24 99//24 98//24 85//24 87//24
f 112//25 125//25 114//25 103//25
f 21//26 24//26 25//26 22//26
f 22//27 25//27 111//27 110//27 97//27 99//27
f 92//28 105//28 106//28 95//28
f 91//29 102//29 105//29 92//29
f 97//30 110//30 113//30 100//30
f 20//31 23//31 24//31 21//31
f 96//32 95//32 106//32 108//32 23//32 20//32
f 108//33 107//33 118//33 120//33 26//33 23//33
f 124//34 137//34 126//34 115//34
f 24//35 27//35 28//35 25//35
f 25//36 28//36 123//36 122//36 109//36 111//36
f 104//37 117//37 118//37 107//37
f 103//38 114//38 117//38 104//38
f 109//39 122//39 125//39 112//39
f 23//40 26//40 27//40 24//40
f 115//41 126//41 129//41 116//41
f 121//42 134//42 137//42 124//42
f 26//43 29//43 30//43 27//43
f 120//44 119//44 130//44 132//44 29//44 26//44
f 27//45 30//45 31//45 28//45
f 28//46 31//46 135//46 134//46 121//46 123//46
f 116//47 129//47 130//47 119//47
f 31//48 144//48 142//48 133//48 135//48
f 132//49 131//49 141//49 143//49 29//49
f 9//50 78//50 81//50 10//50
f 133//51 142//51 138//51 136//51
f 127//52 139//52 140//52 128//52
f 128//53 140//53 141//53 131//53
f 136//54 138//54 139//54 127//54
f 30//55 145//55 144//55 31//55
f 29//56 143//56 145//56 30//56
usemtl F06292
f 138//57 39//57 32//57 139//57
f 140//58 33//58 34//58 141//58
f 139//59 32//59 33//59 140//59
f 142//60 38//60 39//60 138//60
f 143//61 35//61 36//61 145//61
f 145//62 36//62 37//62 144//62
f 47//63 49//63 39//63
f 42//64 56//64 48//64 41//64
f 35//65 43//65 44//65 36//65
f 33//66 54//66 55//66 34//66
f 36//67 44//67 45//67 37//67
f 39//68 50//68 60//68 47//68
f 45//69 58//69 51//69 37//69
f 35//70 53//70 57//70 43//70
f 41//71 40//71 42//71
f 40//72 49//72 47//72
f 41//73 49//73 40//73
f 46//74 45//74 44//74 40//74
f 40//75 44//75 43//75 42//75
f 47//76 46//76 40//76
f 39//77 49//77 32//77
f 54//78 48//78 56//78 55//78
f 55//79 56//79 57//79 53//79
f 52//80 59//80 60//80 50//80
f 33//81 49//81 41//81
f 32//82 49//82 33//82
f 51//83 58//83 59//83 52//83
f 37//84 51//84 52//84 38//84
f 46//85 59//85 58//85 45//85
f 34//86 55//86 53//86 35//86
f 43//87 57//87 56//87 42//87
f 41//88 48//88 54//88 33//88
f 38//89 52//89 50//89 39//89
f 47//90 60//90 59//90 46//90
f 82//91 83//91 84//91
f 85//92 86//92 87//92
f 94//93 95//93 96//93
f 97//94 98//94 99//94
f 106//95 107//95 108//95
f 109//96 110//96 111//96
f 118//97 119//97 120//97
f 121//98 122//98 123//98
f 130//99 131//99 132//99
f 133//100 134//100 135//100
f 81//101 78//101 79//101 80//101
f 82//102 81//102 80//102 83//102
f 89//103 86//103 85//103 88//103
f 78//104 89//104 88//104 79//104
f 93//105 90//105 91//105 92//105
f 94//106 93//106 92//106 95//106
f 101//107 98//107 97//107 100//107
f 90//108 101//108 100//108 91//108
f 105//109 102//109 103//109 104//109
f 106//110 105//110 104//110 107//110
f 113//111 110//111 109//111 112//111
f 102//112 113//112 112//112 103//112
f 117//113 114//113 115//113 116//113
f 118//114 117//114 116//114 119//114
f 125//115 122//115 121//115 124//115
f 114//116 125//116 124//116 115//116
f 129//117 126//117 127//117 128//117
f 130//118 129//118 128//118 131//118
f 137//119 134//119 133//119 136//119
f 126//120 137//120 136//120 127//120
f 143//121 141//121 34//121 35//121
f 142//122 144//122 37//122 38//122
usemtl FFFFFF
f 3//123 63//123 62//123 2//123
f 8//124 68//124 67//124 7//124
f 6//125 66//125 65//125 5//125
f 4//126 64//126 63//126 3//126
f 2//127 62//127 61//127 1//127
f 1//128 61//128 68//128 8//128
f 7//129 67//129 66//129 6//129
f 5//130 65//130 64//130 4//130
f 61//131 69//131 76//131 68//131
f 67//132 75//132 74//132 66//132
f 65//133 73//133 72//133 64//133
f 63//134 71//134 70//134 62//134
f 68//135 76//135 75//135 67//135
f 66//136 74//136 73//136 65//136
f 64//137 72//137 71//137 63//137
f 62//138 70//138 69//138 61//138
f 74//139 77//139 73//139
f 72//139 77//139 71//139
f 70//139 77//139 69//139
f 69//139 77//139 76//139
f 75//139 77//139 74//139
f 73//139 77//139 72//139
f 71//139 77//139 70//139
f 76//139 77//139 75//139
