# File exported by Houdini 19.5.303 (www.sidefx.com)
# 636 points
# 4020 vertices
# 1340 primitives
# Bounds: [-0.176483393, -0.395451427, -0.443586648] to [1.98734856, 0.477589637, 0.45104447]
g 
v -0.12090198 0.0401149727 0.0503163747
v -0.174004525 -0.0638145581 -0.137914687
v -0.141473442 -0.144064397 -0.0598516092
v -0.11225193 -0.174167678 0.0435109809
v -0.0889548883 -0.148876131 0.147299424
v -0.0682271197 -0.073883526 0.224321693
v -0.0398209468 0.0287702177 0.248650327
v -0.0703252032 0.142420426 0.235478431
v -0.0814623311 0.226011246 0.159635112
v -0.0980373994 0.258797258 0.0520462021
v -0.115860149 0.231227934 -0.056757234
v -0.137802839 0.153060287 -0.136107042
v -0.176483393 0.0482548438 -0.16608867
v -0.129329219 -0.147766009 -0.285067797
v -0.11076951 -0.282503366 -0.144458681
v -0.0871477202 -0.335289121 0.0349544398
v -0.0852208585 -0.309691548 0.23020786
v -0.0430829041 -0.16742295 0.368147552
v 0.0284738392 0.0195004791 0.389024436
v 0.0188841671 0.214201614 0.366593957
v 0.0054431688 0.364924878 0.234145537
v -0.0279511902 0.429502368 0.0430824347
v -0.0435505956 0.361618072 -0.147871941
v -0.0827385634 0.23099421 -0.280982137
v -0.127360284 0.0457316041 -0.334761977
v -0.0634135902 -0.171596423 -0.324248582
v -0.0546909384 -0.31510061 -0.171663314
v -0.0351497643 -0.391476154 0.0253470466
v 0.000671795802 -0.360854208 0.243261352
v 0.0438322984 -0.228050858 0.444221705
v 0.0839598775 0.0121240029 0.45104447
v 0.103662513 0.241487026 0.422770172
v 0.0970068797 0.410933614 0.256379575
v 0.068337895 0.476599723 0.030978214
v 0.0293298662 0.387709647 -0.177253932
v -0.0143185249 0.240416259 -0.330366045
v -0.0510125197 0.0337391421 -0.391361147
v 0.0435660519 -0.166912675 -0.309711009
v 0.0409379043 -0.319977939 -0.185138702
v 0.0631100386 -0.371609449 0.00995344296
v 0.0964150131 -0.320845574 0.198752508
v 0.174008444 0.00112986052 0.394560605
v 0.21804525 0.404019386 0.24264507
v 0.186929643 0.477589637 0.0124016749
v 0.139650747 0.381060988 -0.204584688
v 0.15229845 -0.191269726 -0.345552534
v 0.135804787 -0.325603902 -0.195365801
v 0.169832915 -0.388345391 -0.00816684403
v 0.177897766 -0.313307285 0.176910177
v 0.159374759 -0.204149872 0.366800696
v 0.227764249 0.221024916 0.399091393
v 0.282931387 0.441916466 0.000991400098
v 0.25626561 0.360650688 -0.217033356
v 0.212468997 0.187429368 -0.332784504
v 0.176637724 0.00390653173 -0.39235273
v 0.340235531 -0.202719137 -0.313770235
v 0.318239719 -0.320275187 -0.166606382
v 0.2503784 -0.32355094 0.18075721
v 0.234495685 -0.200193211 0.336154073
v 0.239807501 -0.00506362692 0.352810025
v 0.28237927 0.174575984 0.329930097
v 0.30772543 0.334047139 0.199319422
v 0.373709679 0.319693118 -0.181190401
v 0.410462886 0.187364459 -0.334622115
v 0.383326679 -0.0210599005 -0.384267688
v 0.431122154 -0.197302759 -0.279809475
v 0.413638204 -0.301659167 -0.12948063
v 0.403479159 -0.381292462 0.0321772732
v 0.404845059 -0.346124828 0.229655951
v 0.387581438 -0.204538211 0.34696421
v 0.380968392 -0.0258000847 0.373466223
v 0.384999782 0.143571988 0.31887427
v 0.372962743 0.255055368 0.181009188
v 0.352806002 0.333557546 0.0125001669
v 0.492029905 -0.167645901 -0.259130538
v 0.509272337 -0.253962368 -0.125260502
v 0.5510934 -0.296745062 0.0132274451
v 0.581846178 -0.266121328 0.165957779
v 0.561613441 -0.138182268 0.256269813
v 0.535713136 0.00284484308 0.282956481
v 0.480287045 0.129090592 0.250368327
v 0.44170624 0.192861244 0.137940988
v 0.395730197 0.220594466 0.00797388889
v 0.406807065 0.233528882 -0.106191255
v 0.462459803 0.158090517 -0.289948672
v 0.462945461 -0.0296738092 -0.309114516
v 0.57118386 -0.13065505 -0.266076744
v 0.606374323 -0.226425827 -0.153584659
v 0.633699775 -0.239761099 -0.0111399973
v 0.645427883 -0.183327869 0.109341338
v 0.640958488 -0.0872100592 0.185530245
v 0.621207058 0.0243026316 0.199274525
v 0.592325866 0.117354743 0.154242784
v 0.566205084 0.161762744 0.0692678094
v 0.518599093 0.235740945 -0.143554181
v 0.510086119 0.165667772 -0.28989014
v 0.532383204 0.0113752689 -0.35731262
v 0.703125715 -0.107325278 -0.252206206
v 0.70845294 -0.202264279 -0.148336604
v 0.714950442 -0.232818082 -0.0129659027
v 0.719486415 -0.192839697 0.114696451
v 0.701539934 -0.109001473 0.239364192
v 0.705218971 0.0344151184 0.281663716
v 0.70111078 0.162003964 0.202137455
v 0.702252805 0.201128513 0.0781061947
v 0.678856432 0.249264985 -0.0189957395
v 0.685557067 0.268393844 -0.157218516
v 0.654170454 0.026080722 -0.335461885
v 0.798257887 -0.106039055 -0.260662645
v 0.793127477 -0.205710337 -0.147599295
v 0.811154902 -0.226828575 -0.011363727
v 0.803703129 -0.208260179 0.129316762
v 0.790415585 -0.117643587 0.257804662
v 0.794575691 0.03828099 0.327481806
v 0.784583867 0.180828273 0.236150131
v 0.794701993 0.243311554 0.103076614
v 0.777385056 0.310452312 -0.0160184223
v 0.768025875 0.290139765 -0.16020681
v 0.711812854 0.197493166 -0.306505859
v 0.767525852 0.0404885672 -0.322308391
v 0.872909427 -0.114874512 -0.27705428
v 0.875715435 -0.218722731 -0.16301924
v 0.887525558 -0.272533953 -0.0198673047
v 0.898448169 -0.126995251 0.27609998
v 0.905598223 0.0424524955 0.325675607
v 0.894786835 0.19635205 0.243488073
v 0.896938205 0.276442647 0.116173416
v 0.876600921 0.35762462 -0.0225884374
v 0.848827958 0.327836752 -0.188789025
v 0.815361679 0.218603656 -0.336758554
v 0.849936724 0.0261932164 -0.352351904
v 0.950977504 -0.125757843 -0.309036583
v 0.948899508 -0.251191974 -0.200058192
v 1.00477159 0.215291843 0.264163226
v 1.0078907 0.317431509 0.119989112
v 0.978410304 0.413633317 -0.0382691026
v 0.959803462 0.402124226 -0.248033375
v 0.939385712 0.237117022 -0.380110592
v 0.948350966 0.0384349003 -0.411074042
v 1.05865002 -0.14391166 -0.323608577
v 1.02393091 -0.284351021 -0.194036305
v 0.954200208 -0.309614241 -0.0220122728
v 0.912172616 -0.245761201 0.14661783
v 0.985238135 -0.133528575 0.268460482
v 1.00350404 0.0496842973 0.320168257
v 1.07160664 0.203014672 0.241644815
v 1.12530041 0.316993803 0.126080096
v 1.19816971 0.382705241 -0.0497031361
v 1.22921598 0.335404724 -0.238393962
v 1.14779961 -0.0015640026 -0.41454044
v 1.15941453 -0.174525276 -0.236532077
v 1.09920144 -0.295667112 -0.147078887
v 1.05417585 -0.329655498 0.0103519782
v 1.03241599 -0.237487629 0.143400356
v 1.05198276 -0.127683729 0.235196665
v 1.08481336 0.00140202406 0.274379551
v 1.13393939 0.118596874 0.219940573
v 1.22960007 -0.205327436 -0.270922154
v 1.23029208 -0.371820182 -0.163563862
v 1.23002195 -0.384114742 0.0371334143
v 1.24884999 -0.314932942 0.189715758
v 1.24810708 -0.15930739 0.253528118
v 1.26631641 -0.0222577956 0.254579693
v 1.24647963 0.101353593 0.222362936
v 1.19387949 0.219503716 0.132993877
v 1.23919964 0.285259783 0.000629690243
v 1.26934636 0.264674336 -0.166739017
v 1.27014935 0.150318012 -0.30993548
v 1.21522355 -0.0376055688 -0.303026527
v 1.321908 -0.221377701 -0.320502251
v 1.34902275 -0.373447508 -0.189221561
v 1.34687233 -0.364228636 0.00850417744
v 1.37043035 -0.25416261 0.145463765
v 1.36343706 -0.132141307 0.211208716
v 1.37187445 -0.00817461405 0.230753571
v 1.34668541 0.114438549 0.210609525
v 1.30899966 0.227779582 0.129533648
v 1.31075835 0.287020415 -0.0166760199
v 1.43997288 -0.207010508 -0.344576716
v 1.45239556 -0.340071082 -0.189963788
v 1.44684076 -0.347642124 -0.00557144219
v 1.46724892 -0.242176414 0.133410335
v 1.46066737 -0.121943086 0.206495076
v 1.43204796 0.121097982 0.195406362
v 1.41594112 0.240242973 0.120000303
v 1.41638827 0.296522647 -0.0233832281
v 1.41615212 0.284546047 -0.195321381
v 1.41632903 0.160375237 -0.337344825
v 1.43560183 -0.0131245134 -0.355082691
v 1.56186652 -0.192259923 -0.307360262
v 1.55718756 -0.330367744 -0.17799443
v 1.53696609 -0.313325137 0.00557370204
v 1.5375576 -0.235895216 0.142573565
v 1.52682281 -0.12542516 0.21939373
v 1.49131238 0.00325493072 0.240431517
v 1.51641691 0.121623069 0.199840665
v 1.51410007 0.235234231 0.123645872
v 1.51987016 0.299873561 -0.01417448
v 1.52405202 0.298010886 -0.193091974
v 1.53689992 0.164143279 -0.318749547
v 1.55668497 -0.013191767 -0.335101306
v 1.67160785 -0.183029145 -0.283387452
v 1.66739511 -0.306159526 -0.153483167
v 1.64927852 -0.326155037 0.0203575343
v 1.62873375 -0.251709193 0.162141323
v 1.61114883 -0.135171339 0.250258237
v 1.60095239 0.00548294652 0.277815104
v 1.61550164 0.134232759 0.226289496
v 1.61151946 0.241060555 0.136895046
v 1.60527503 0.347198606 -0.00561614335
v 1.61117005 0.336824954 -0.206367746
v 1.63774741 0.174402848 -0.322853923
v 1.66697562 -0.0119570531 -0.336123765
v 1.78090191 -0.181531206 -0.281345457
v 1.77963829 -0.31049639 -0.154034287
v 1.76746964 -0.343116254 0.0339254141
v 1.74711239 -0.264330655 0.192577049
v 1.71369863 -0.144994438 0.310545355
v 1.69066155 0.0176906101 0.352864414
v 1.70362759 0.168496847 0.27293393
v 1.69891393 0.282319874 0.163585201
v 1.67307615 0.397923887 0.00101896096
v 1.68949914 0.354405671 -0.202977553
v 1.72504008 0.199566454 -0.343237579
v 1.76708245 -0.00216119038 -0.357738793
v 1.88734341 -0.178472057 -0.291846871
v 1.89989173 -0.377607703 -0.179795608
v 1.87694371 -0.395451427 0.0485638045
v 1.84211636 -0.303628057 0.235300452
v 1.80890822 -0.17137906 0.38481155
v 1.77583861 0.0334300175 0.428411812
v 1.76362574 0.199244797 0.316047519
v 1.76217675 0.319250464 0.185896292
v 1.77123058 0.447567254 0.0115462653
v 1.80136657 0.390495151 -0.203184128
v 1.84242058 0.228770614 -0.357815564
v 1.87356222 0.0101607367 -0.37576592
v 1.91335523 -0.149739698 -0.245221063
v 1.9540695 -0.28418225 -0.12773715
v 1.94508839 -0.324809134 0.048211392
v 1.92059791 -0.26997444 0.239379704
v 1.89509559 -0.12717697 0.36490339
v 1.87723553 0.047838781 0.412622571
v 1.79835427 0.195740148 0.310975134
v 1.78698885 0.307645261 0.176579788
v 1.85850751 0.388439029 0.0132849663
v 1.87841368 0.338083923 -0.157694399
v 1.91775358 0.206071869 -0.280520678
v 1.89975512 0.0164957345 -0.297055811
v 1.94579077 -0.0702263862 -0.126768038
v 1.9829191 -0.142147556 -0.0501624718
v 1.96439016 -0.16597262 0.0522127971
v 1.97346807 -0.137324646 0.158384472
v 1.98734856 -0.0578283034 0.241055772
v 1.95489013 0.0487392209 0.259854496
v 1.90877557 0.144361407 0.216440469
v 1.90666354 0.216741294 0.13834925
v 1.92184603 0.243068561 0.0358341187
v 1.92320764 0.208267078 -0.0657074973
v 1.92312229 0.127963454 -0.135178417
v 1.93331373 0.0274371803 -0.15747498
v 1.96637189 0.0405794308 0.0467643067
v 1.11077213 0.290163994 -0.329887718
v 1.1184448 0.406833857 -0.132861689
v 1.03261375 0.118634433 -0.435599446
v 0.295619041 -0.102712117 -0.338338017
v 0.524146795 -0.235104069 0.246970713
v 0.491582036 -0.0863457918 0.293117046
v 0.283020556 0.10564974 -0.365517914
v 0.107977442 -0.0870468616 -0.365272075
v 0.172530919 0.259518325 -0.252086848
v 1.11703813 -0.218783468 0.20484753
v 0.281859785 -0.262460172 -0.245481849
v 0.31497708 -0.375219077 0.115479268
v 0.34015128 -0.282634586 0.284857213
v 1.1300391 -0.33014974 0.082921207
v 0.0937767178 -0.251681268 -0.259928048
v 0.356804729 -0.348824173 -0.070179671
v 0.214200214 0.422716975 -0.108593658
v 0.523492396 -0.317789823 0.102729797
v 1.13333952 -0.0785984248 -0.323545724
v 0.458467513 0.0602225736 0.283958167
v 0.184517577 0.346303582 0.358775973
v 0.0294904802 0.121322304 -0.339881867
v -0.00399981439 -0.23429136 -0.239315018
v 0.130225331 -0.101490133 0.419983655
v 0.0575370751 0.295333773 -0.249817193
v 0.0370489806 -0.376578569 0.120853983
v 0.0092031816 -0.313961804 -0.0717817247
v 0.156146452 0.110017523 0.417578012
v 0.15098621 0.447150081 0.136534289
v 0.112256378 0.431760401 -0.0911313891
v 0.0813418254 -0.267239034 0.291789353
v 0.00111891411 -0.0795081258 -0.371530503
v 1.23690128 0.0639042556 -0.338094652
v 0.250757247 -0.361356378 -0.0941338539
v 0.316808075 -0.121202253 0.361991763
v 1.00702238 -0.0555366799 -0.352073073
v 0.099013187 -0.32002598 -0.0874941647
v 1.12709141 -0.233057141 -0.197121054
v 0.242945984 0.416833222 0.120799787
v 1.10780215 0.38099125 -0.249568135
v 0.910964191 0.384097874 -0.12238194
v 0.939110219 0.326412022 0.0431134142
v 1.05520308 0.220265791 -0.386565536
v 1.8068167 -0.321829408 0.130403772
v 1.82193875 -0.352489144 -0.0581759214
v 1.77907217 -0.216851518 0.271229446
v 1.84053504 -0.245922998 -0.218085781
v 0.377502143 -0.258425206 -0.224722967
v 1.73888969 -0.0675054044 0.373579323
v 1.82736802 -0.0894797295 -0.322837859
v 1.73625743 0.112112708 0.341289669
v 1.80045748 0.104892962 -0.361610085
v 1.74080849 0.24000819 0.231462851
v 1.26963091 0.23044464 -0.258042425
v 1.75482571 0.284040511 -0.269214541
v 1.72364032 0.366566509 0.10150063
v 1.71831048 0.408391804 -0.102329887
v 0.124587491 -0.362018287 0.102867916
v 0.888828933 0.287706405 -0.278492421
v 0.0772639811 0.33966133 0.351327032
v -0.0336908549 -0.331212163 -0.0694969073
v -0.00959459133 0.328107566 -0.26286459
v -0.0795515478 -0.074208349 -0.37439397
v 0.0617285073 0.448771834 0.145764589
v 0.00816430431 -0.284555346 0.324715763
v 0.0838806555 0.119613141 0.417988956
v 0.0467008725 -0.0973134413 0.450736403
v -0.038561713 0.140233934 -0.35431391
v 0.0369790345 0.426103145 -0.0764891803
v -0.0374045856 -0.387873948 0.136733875
v -0.0529041924 -0.235378399 -0.237325892
v 0.946822643 0.24636966 0.177859098
v 0.254765451 0.280511141 0.295463651
v 1.15216315 -0.361604393 -0.0868577138
v 1.31346226 -0.20134747 0.19472219
v 0.21811983 -0.3657462 0.0983064696
v 1.6999861 -0.285799623 0.105171598
v 1.50161445 0.0681599006 -0.31985727
v -0.0445448272 0.232127905 0.237686738
v -0.0172928236 0.0987012908 0.294562668
v -0.134937763 -0.150779888 -0.138046905
v -0.0719320327 0.300832331 -0.0305135641
v -0.0554765239 0.303901166 0.112997882
v -0.0705141202 -0.153338805 0.24635981
v -0.107792079 -0.229140669 0.164460301
v -0.135283098 0.102150559 -0.225500315
v 1.04686821 0.256232679 0.183154315
v 1.72079086 -0.332249701 -0.062725842
v 1.67967653 -0.193178594 0.224994808
v 1.317168 -0.0728182122 0.226719931
v 0.8490659 0.117987081 0.282305986
v 0.159435928 -0.253194004 0.2551606
v 0.241321564 0.0827248916 0.348301053
v 1.0282495 -0.300036848 -0.0918937922
v 0.853206277 -0.0466474295 0.310464561
v 1.47507095 0.229819402 -0.260400385
v 1.50917387 -0.104477331 -0.347003073
v 0.227611497 -0.0850396454 0.348898292
v 0.308623612 0.0687074885 0.346438885
v 1.71253276 -0.243632242 -0.216719896
v -0.0769623891 0.0341078602 0.150428459
v -0.154977664 0.100614674 -0.0393355079
v -0.126200557 0.136669055 0.109668054
v -0.146810204 0.14024137 0.00120125478
v -0.14127636 0.154514387 0.0567321517
v -0.158480555 -0.00984080601 -0.0409404635
v -0.0932624489 0.0903825089 0.14163965
v -0.151596427 -0.0509573482 -0.00217131409
v -0.0759165436 -0.0188859124 0.133858785
v -0.0831535608 -0.056369558 0.0948877856
v -0.162923381 0.0461324602 -0.0543979704
v -0.11183577 -0.0681802928 0.0460813902
v 1.36539721 0.22111313 -0.262223065
v 0.857691824 0.123164527 -0.379453659
v 0.13546364 0.102269791 -0.349498361
v 0.111949317 0.273388505 -0.245318875
v 1.65236723 -0.0658546314 0.300890625
v 0.842377722 0.216927022 0.158681452
v 0.958599389 0.130401969 0.296003878
v 1.32300746 -0.329272121 0.0984867737
v 0.463953853 -0.173910126 0.298009455
v 1.13800597 -0.293596059 0.170192897
v 0.316162467 0.360678792 0.0900616869
v 1.77687621 0.125036463 0.367581815
v 1.88323545 0.112619035 -0.340926588
v 1.8911016 -0.338838667 0.146774337
v 1.82403362 -0.0613964982 0.419642985
v 1.78753161 0.371422321 0.105948359
v 1.89697194 0.268298805 -0.214511409
v 1.89943743 -0.370856524 -0.0555986091
v 1.75886297 0.259913266 0.247823447
v 1.89255214 -0.251849681 -0.225834548
v 1.82698214 -0.241587251 0.293836772
v 1.87122059 0.355578572 -0.079567343
v 1.88943613 -0.0835049897 -0.306152254
v 1.34212637 0.0669135749 -0.355027616
v 1.36818683 0.279027373 -0.0993433446
v 0.844979584 -0.168881774 0.191365778
v 1.80476236 0.428742826 -0.0983159021
v 1.83506215 0.305295736 -0.271102935
v 0.584014237 0.10422682 -0.32832551
v 1.60889947 -0.314382464 -0.0690025911
v 1.72652805 -0.0931668058 -0.312026411
v 1.6150558 -0.240601003 -0.219482347
v 1.66147184 0.0847104415 0.274631172
v 0.56026727 0.21124886 -0.210031092
v 1.24881446 0.272855341 -0.0718857646
v 1.89125884 0.250382215 -0.122591995
v 1.97850025 -0.190092757 -0.106295377
v 1.9763546 -0.228361443 0.000107872533
v 1.94884741 -0.16611582 0.23680006
v 1.85089898 0.205582827 0.243595332
v 1.89133358 0.292473167 -0.0213700458
v 1.92077219 -0.0166265219 -0.221633136
v 1.95280218 -0.235658705 0.0876361355
v 0.41747269 0.194059685 0.227826059
v 0.171395138 -0.33935374 -0.113498703
v 1.56990838 -0.259742618 0.0894836858
v 0.377049953 -0.118429571 -0.332598567
v 0.244687125 0.248344406 -0.27747643
v 0.186138704 -0.289496124 -0.290038258
v 0.842001021 0.296605945 0.049471274
v 1.47212636 0.293500215 -0.0982674137
v 1.61769092 -0.096251756 -0.310900658
v 0.218160525 0.0801175013 -0.368524671
v 0.199747235 -0.095891878 -0.362422496
v 1.31193089 0.0436277241 0.219084084
v 0.49677527 -0.330246687 0.207508802
v 1.50515878 -0.269255787 -0.25491336
v 0.9238832 -0.0486839563 -0.32779482
v 1.70692933 0.0860806182 -0.332573116
v 0.973697543 -0.0421633273 0.29556933
v 1.66644096 0.196519166 0.192159027
v 1.96254992 0.145508543 0.0432195216
v 1.97446442 0.13643764 0.0984810293
v 1.9331187 0.0319479853 -0.0579663068
v 1.9576683 0.0959185585 0.135528147
v 1.94322968 -0.0168899335 -0.0422700159
v 1.95522237 -0.0481960215 0.0995145813
v 1.94337106 0.0849663019 -0.0459632128
v 1.96899199 -0.0509380884 -0.00205811253
v 1.95476007 0.0434294455 0.15002805
v 1.94890857 -0.00970976613 0.13573043
v 1.96691394 -0.0630124733 0.0497098528
v 1.96264839 0.128584817 -0.00852454547
v 1.13872349 -0.161889195 0.253032506
v 1.57464063 -0.179670513 0.187607363
v 1.19718015 0.0408218056 0.254754305
v 0.87469846 -0.243182823 0.0458967388
v 1.34882033 -0.13115865 -0.334549189
v 1.66413391 0.265066624 -0.270091057
v 1.60403275 0.0725769177 -0.314427525
v 1.64764619 0.31762743 0.0840468407
v 1.3682425 0.269546181 0.0560431704
v 1.64778709 0.365709871 -0.099747546
v 0.637822449 -0.0531745851 -0.307390809
v 0.977373481 -0.176208615 -0.260276526
v 1.31514609 -0.365025014 -0.0857639313
v 0.970683098 -0.282791734 0.0705860332
v 0.329915553 0.226719469 0.255426437
v 0.909748733 -0.163645849 -0.225643873
v 0.813790321 0.333117545 -0.0996102393
v 0.942189693 -0.188108727 0.214091718
v 0.609829545 0.235236868 -0.0830263495
v 1.57609761 0.259068787 -0.278938264
v 0.845871091 -0.235155135 -0.0883251801
v 1.4680382 0.2640163 0.0554760136
v 0.482702136 0.078304559 -0.317398697
v 1.08231533 0.401115716 -0.0381687842
v 0.370542139 0.334821641 -0.0773605183
v 0.44081521 0.232351974 -0.228189409
v 0.24446556 -0.270711929 0.24894686
v 1.50019085 -0.349999994 -0.0865841508
v 1.56156754 0.0672635362 0.226148188
v 1.1708796 0.28588447 0.102271482
v 1.57451975 0.318854451 -0.0955806151
v -0.0354067199 0.377099603 -0.0549118519
v -0.0690026805 0.295169443 -0.20688495
v -0.104210496 -0.317644268 0.127837911
v -0.109982073 0.153063163 -0.295982748
v -0.142528921 -0.0601326302 -0.304828525
v -0.0790582076 -0.24090302 0.28533721
v -0.00278556906 0.287923008 0.295723498
v -0.0232360307 -0.0595973954 0.390443116
v 0.0238658283 0.111095443 0.362889051
v -0.0190948844 0.384798735 0.133453563
v -0.0830178857 -0.297294468 -0.0465792231
v -0.124961264 -0.20926097 -0.202683613
v 1.39430952 -0.28805545 -0.264342457
v 1.56803691 0.172288537 0.165548086
v 0.453556508 -0.0142147252 0.343313068
v 0.686298132 0.0947035998 0.218204632
v 1.56218672 0.283366203 0.0679691583
v 1.0703361 0.0247533452 -0.443586648
v 1.10279655 0.255727082 0.170098305
v 1.0266875 -0.2094419 -0.251633495
v 0.744472384 0.19339782 0.141706035
v 0.745247185 -0.046300333 0.296416342
v 0.94394964 -0.28985855 -0.116889931
v 1.13603473 -0.356930286 0.00378370937
v 1.37769175 0.176236838 0.165779889
v 1.27651417 0.166084588 0.179940552
v 0.749031484 0.237538457 0.0373947732
v 1.0096637 0.353311867 0.0321209133
v 0.455775738 0.181452736 0.0621833615
v 1.78276503 -0.242744043 -0.215739176
v 0.493330151 0.222413987 -0.0608761907
v 0.963926911 0.147304475 -0.409228772
v 1.02053738 0.432344884 -0.144330621
v 1.04443502 0.136173159 0.278934002
v 1.09917045 -0.0626102835 -0.369841635
v 1.00515091 0.309029907 -0.319208413
v 1.16593945 0.352713495 0.046633698
v 0.723733306 0.276608855 -0.0815110207
v 0.772942901 -0.201506406 0.0470962152
v 0.771574616 0.257261485 -0.229937792
v 0.75203532 -0.231057048 -0.0804747343
v 0.486365348 0.154132321 0.165326118
v 0.764010131 0.133663222 -0.341311514
v 1.17384541 0.078963466 -0.421083391
v 0.792632103 -0.157694191 -0.205871299
v 0.457801014 0.203728586 -0.196372479
v 1.20954454 0.358588606 -0.151104957
v 1.47153723 0.169019029 0.157109469
v 0.761370718 -0.0294561777 -0.288332313
v 1.15974212 0.159850746 0.17794244
v 1.19218516 -0.267436892 -0.219407484
v 0.671011329 -0.164834455 -0.204186887
v 1.28849268 -0.284315079 -0.237913907
v 0.476923078 -0.242884219 -0.215867952
v 1.21536565 0.295129418 -0.307516903
v 1.92383969 -0.199143872 -0.185638458
v 1.8991369 -0.190918908 0.310560673
v 1.97501349 -0.299206167 -0.048232995
v 1.0639255 -0.068800278 0.264678359
v 1.40371084 -0.367417932 -0.0897473693
v 0.373089463 0.226199016 0.083687216
v 1.10486174 0.061433211 0.254894406
v 0.357421875 0.278325975 0.105042353
v 0.467389375 -0.315709859 -0.0476422422
v 0.846620858 -0.0513163134 -0.301830053
v 0.661960483 0.193906665 0.0267685279
v 0.467203438 -0.113354802 -0.284006685
v 0.390045971 0.04355672 0.354189545
v 0.529494226 0.0680022985 0.239141747
v 1.4396739 0.0647012442 0.206588641
v 1.44749117 -0.178193837 0.174724773
v 0.459033489 0.0789524317 -0.324649364
v 0.41839692 -0.366030425 0.132617444
v 0.40008077 -0.109458975 0.3500911
v 1.54381013 -0.0712557733 0.234979764
v 1.2864722 0.264115185 0.0489687845
v 0.416265219 -0.274860501 0.285846978
v 0.275843292 -0.00374410278 -0.385197639
v 1.43868017 -0.29598096 0.070800826
v 1.42637324 -0.0625722781 0.211301625
v 0.474254102 -0.335000724 0.0310609639
v 1.25747705 -0.116121404 -0.301645726
v 0.562682092 -0.0610748492 0.256069392
v 0.504156291 -0.0874451846 -0.286593109
v 0.247102126 -0.203001365 -0.339392096
v 0.674334347 -0.229880169 -0.0798609778
v 0.323408335 -0.351751357 0.214503676
v 1.23943901 0.0610896721 -0.324203432
v 1.41256046 -0.103065677 -0.359945863
v 0.601381719 -0.194887266 0.21030958
v 1.4212786 0.067785427 -0.337104797
v 1.1679374 -0.0189075842 0.284693688
v 0.521844685 -0.206720129 -0.199162304
v 1.25646794 0.224392533 -0.238123745
v 0.752563179 0.112496212 0.264821708
v 0.307987809 0.187428921 -0.337676972
v 0.000137569383 0.0219083745 0.324022084
v -0.16848889 -0.106999807 -0.217655867
v -0.098093316 -0.254972845 0.0412045605
v -0.15954569 -0.00380004151 -0.233493462
v -0.0459987521 -0.0671493709 0.301406384
v -0.0804551765 0.296844065 -0.115183212
v -0.0283369962 0.186731711 0.304628819
v -0.0703481734 0.349611133 0.041929692
v -0.0257535353 0.297764987 0.189503402
v -0.104068741 -0.216806263 -0.0735136271
v 0.300831258 -0.214959159 0.34873268
v 0.669962943 0.165727794 0.115082204
v 0.588712215 -0.25927788 0.0757243782
v 0.557660758 -0.261551797 -0.0643359348
v 1.28831565 0.273287207 -0.104451261
v 1.27571869 0.213829711 -0.26654771
v 0.613348901 0.18338047 -0.296686202
v 1.21720302 0.205229491 -0.387147069
v 1.1955142 -0.0998861343 -0.257726043
v 1.23031723 -0.380251497 -0.0532364883
v 1.2229166 0.260892391 0.0711530223
v 1.23844326 -0.0760850161 0.260249317
v 1.90360594 0.185524717 -0.195575252
v 1.82547545 0.261369616 0.183053032
v 1.94734681 -0.111914717 0.301820725
v 1.9621644 -0.233097717 0.175746232
v 1.91921127 -0.114902377 -0.203569666
v 1.86801875 0.304856688 0.0930306241
v 0.608313322 0.241439834 -0.147401452
v 1.22244358 -0.347374946 0.11864385
v 1.222767 -0.22765623 0.220595792
v 0.0612400845 0.0190557335 -0.409659863
v 0.692708135 -0.210655093 0.052060917
v 1.19365561 -0.0177374054 -0.34123224
v 0.28815338 -0.393997014 0.00790229626
v 0.729584098 -0.149785504 0.16948846
v 0.685870469 -0.0347639695 0.236800462
v 0.460201532 0.0684303492 -0.289653033
v 0.678564191 0.111273572 -0.326543331
v 0.663497806 0.224725246 -0.215074331
v 0.0951032415 0.200598031 -0.304077595
v 1.08392811 -0.31142953 -0.0790367723
v 0.316638559 -0.0164155196 0.36051923
v 1.04771852 -0.284199804 0.0881749094
v 1.04261756 -0.159152344 0.199411094
v 1.07428896 0.34055686 0.0562152788
v 1.13357854 -0.334642172 -0.162944108
v 1.12107944 -0.160234526 -0.268159628
v 0.326524675 0.262323737 -0.268155992
v 0.223600417 -0.322251707 -0.183283359
v 1.29607058 0.153437495 -0.329844147
v 0.549575865 0.205435649 -0.0128230648
v 1.15591729 -0.101729549 0.261415631
v 1.30983973 -0.0359521247 -0.349129349
v 1.30349708 0.272001356 -0.190538704
v 1.90495539 0.090740107 -0.231457382
v 1.88077009 0.119665682 0.317910433
v 1.91673124 -0.0124353999 0.333054841
v 0.31767121 0.402922422 -0.103580445
v 1.10266232 0.137116045 -0.42228505
v 0.387287438 0.0944316387 -0.393755347
v -0.10506814 0.209739819 -0.189215854
g 
f 368 1 1
f 1 368 370
f 370 1 1
f 1 370 374
f 374 1 1
f 1 374 372
f 372 1 1
f 1 372 371
f 371 1 1
f 1 371 363
f 363 1 1
f 1 363 369
f 369 1 1
f 1 369 365
f 365 1 1
f 1 365 367
f 367 1 1
f 1 367 366
f 366 1 1
f 1 366 364
f 364 1 1
f 1 364 373
f 373 1 1
f 1 373 368
f 584 3 343
f 490 584 343
f 577 4 584
f 489 577 584
f 17 347 481
f 579 6 346
f 18 346 484
f 575 7 579
f 486 575 579
f 581 8 342
f 487 581 342
f 583 9 341
f 485 583 341
f 582 10 345
f 488 582 345
f 580 11 344
f 479 580 344
f 24 636 480
f 578 13 348
f 25 348 482
f 576 483 14
f 483 576 578
f 333 27 15
f 323 28 16
f 332 29 17
f 327 30 18
f 329 31 19
f 328 32 20
f 322 33 21
f 326 34 22
f 331 35 23
f 324 36 24
f 330 37 25
f 325 26 14
f 285 39 27
f 39 285 277
f 289 40 28
f 288 41 29
f 41 288 320
f 293 50 30
f 286 42 31
f 290 51 32
f 283 43 33
f 291 44 34
f 44 291 301
f 292 45 35
f 287 615 36
f 615 287 378
f 284 606 37
f 606 284 377
f 294 38 26
f 38 294 270
f 277 47 39
f 47 277 423
f 299 48 40
f 48 299 419
f 320 49 41
f 49 320 338
f 360 60 42
f 335 62 43
f 301 52 44
f 279 53 45
f 53 279 633
f 54 271 422
f 55 377 427
f 270 46 38
f 46 270 428
f 624 423 273
f 296 609 48
f 338 58 49
f 354 59 50
f 59 354 474
f 61 51 355
f 385 74 52
f 74 385 541
f 63 633 472
f 64 623 473
f 427 269 556
f 266 56 563
f 56 266 421
f 310 67 57
f 609 296 278
f 68 278 542
f 565 58 274
f 551 565 274
f 585 474 275
f 70 275 555
f 617 360 297
f 71 297 552
f 361 72 61
f 72 361 546
f 462 73 62
f 73 462 418
f 84 63 472
f 84 472 83
f 85 64 473
f 470 86 65
f 421 66 56
f 66 421 545
f 532 76 67
f 76 532 571
f 77 542 588
f 78 280 587
f 79 267 568
f 493 552 268
f 268 80 493
f 81 72 282
f 81 282 547
f 418 82 73
f 82 418 520
f 539 83 74
f 83 539 507
f 86 470 612
f 75 66 545
f 571 88 76
f 88 571 87
f 588 89 77
f 89 588 88
f 587 90 78
f 90 587 89
f 568 91 79
f 91 568 90
f 561 92 80
f 92 561 91
f 547 93 81
f 93 547 92
f 520 94 82
f 94 520 93
f 507 626 83
f 626 507 94
f 509 95 84
f 95 509 466
f 524 96 85
f 96 524 408
f 550 97 86
f 97 550 96
f 562 87 75
f 87 562 97
f 530 99 88
f 564 100 89
f 100 564 519
f 607 101 90
f 610 102 91
f 611 103 92
f 494 104 93
f 586 105 94
f 105 586 499
f 603 95 466
f 107 466 516
f 591 96 408
f 614 591 408
f 108 97 403
f 108 403 613
f 458 98 87
f 523 110 99
f 519 111 100
f 111 519 468
f 517 112 101
f 610 113 102
f 113 610 400
f 500 114 103
f 104 573 115
f 573 104 494
f 499 116 105
f 116 499 380
f 505 117 106
f 516 118 107
f 518 119 614
f 521 120 613
f 527 109 98
f 523 122 110
f 122 523 463
f 468 123 111
f 451 143 112
f 400 124 113
f 124 400 465
f 125 114 357
f 126 115 353
f 126 353 381
f 380 127 116
f 127 380 334
f 424 128 117
f 464 129 118
f 129 464 303
f 518 130 119
f 130 518 321
f 120 376 131
f 376 120 521
f 109 543 121
f 543 109 527
f 463 133 122
f 501 142 123
f 143 451 461
f 465 144 124
f 434 145 125
f 381 134 126
f 334 135 127
f 304 136 128
f 136 304 506
f 303 137 129
f 137 303 511
f 321 138 130
f 138 321 514
f 376 139 131
f 139 376 510
f 432 132 121
f 133 498 141
f 498 133 459
f 512 146 134
f 349 147 135
f 147 349 497
f 515 471 620
f 511 264 302
f 514 263 305
f 592 263 533
f 496 139 265
f 150 496 522
f 298 140 132
f 140 298 513
f 300 152 141
f 356 153 142
f 153 356 616
f 461 154 143
f 154 461 618
f 144 619 155
f 619 144 465
f 156 145 434
f 157 146 512
f 497 477 147
f 595 515 477
f 168 316 572
f 608 522 295
f 169 295 566
f 622 593 151
f 593 622 281
f 621 300 529
f 502 616 336
f 594 502 336
f 384 618 276
f 604 384 276
f 448 619 272
f 605 448 272
f 570 537 627
f 596 570 627
f 450 164 157
f 593 158 151
f 158 593 560
f 531 171 159
f 172 594 460
f 172 460 538
f 173 161 382
f 174 162 337
f 174 337 549
f 352 175 163
f 429 176 164
f 504 177 165
f 554 178 166
f 167 589 629
f 589 167 409
f 168 590 625
f 590 168 572
f 566 628 169
f 628 566 398
f 560 170 158
f 491 180 171
f 538 181 172
f 557 182 173
f 549 183 174
f 558 195 175
f 548 184 176
f 503 185 177
f 185 503 526
f 456 186 178
f 189 398 569
f 452 179 170
f 179 452 567
f 431 191 180
f 475 192 181
f 192 475 404
f 182 420 193
f 420 182 557
f 549 194 183
f 548 196 184
f 526 197 185
f 197 526 492
f 469 198 186
f 199 187 425
f 199 425 478
f 200 188 358
f 200 358 467
f 201 189 340
f 201 340 454
f 359 190 179
f 406 203 191
f 203 406 362
f 404 204 192
f 420 205 193
f 205 420 339
f 449 206 194
f 206 449 351
f 553 207 195
f 207 553 379
f 476 208 196
f 492 209 197
f 495 210 198
f 210 495 455
f 478 211 199
f 467 212 200
f 212 467 453
f 454 213 201
f 426 202 190
f 202 426 405
f 362 215 203
f 215 362 508
f 350 216 204
f 339 217 205
f 351 218 206
f 379 219 207
f 219 379 311
f 407 220 208
f 435 221 209
f 455 222 210
f 457 223 211
f 453 224 212
f 224 453 317
f 433 225 213
f 405 214 202
f 309 227 215
f 227 309 394
f 307 228 216
f 228 307 392
f 306 229 217
f 229 306 388
f 308 230 218
f 230 308 395
f 311 231 219
f 231 311 389
f 313 232 220
f 232 313 386
f 315 233 221
f 233 315 393
f 318 234 222
f 234 318 390
f 319 235 223
f 235 319 401
f 317 236 224
f 236 317 402
f 314 237 225
f 237 314 387
f 312 226 214
f 226 312 397
f 394 239 227
f 239 394 534
f 392 240 228
f 240 392 536
f 230 535 242
f 535 230 395
f 389 243 231
f 386 244 232
f 393 245 233
f 390 246 234
f 396 247 401
f 391 248 402
f 387 249 237
f 251 411 250
f 536 412 240
f 252 412 251
f 253 417 252
f 599 535 413
f 254 413 253
f 255 632 254
f 256 631 255
f 257 414 256
f 258 602 257
f 259 415 258
f 260 410 259
f 261 630 260
f 416 250 601
f 250 416 261
f 443 251 440
f 251 443 443
f 251 443 252
f 252 446 446
f 441 253 252
f 253 441 441
f 253 445 254
f 254 445 445
f 444 255 254
f 255 444 444
f 439 256 255
f 256 439 439
f 437 257 256
f 257 437 437
f 436 258 437
f 258 436 436
f 258 436 259
f 259 447 447
f 442 260 259
f 260 442 442
f 438 261 442
f 261 438 438
f 261 438 250
f 262 262 440
f 263 514 302
f 264 511 471
f 139 510 265
f 265 510 305
f 46 428 563
f 556 428 55
f 555 267 383
f 430 555 69
f 71 552 493
f 383 552 70
f 269 54 574
f 147 620 135
f 615 378 271
f 53 271 45
f 155 619 448
f 272 154 384
f 47 423 624
f 58 338 274
f 59 474 585
f 565 474 58
f 154 618 384
f 276 153 502
f 46 277 38
f 623 53 63
f 67 278 57
f 45 292 279
f 52 279 44
f 551 280 430
f 559 551 68
f 140 513 281
f 281 150 608
f 72 546 282
f 493 546 71
f 33 322 283
f 51 283 32
f 37 330 284
f 615 284 36
f 27 333 285
f 38 285 26
f 31 329 286
f 50 286 30
f 36 324 287
f 45 287 35
f 29 332 288
f 40 288 28
f 28 323 289
f 39 289 27
f 32 328 290
f 42 290 31
f 34 326 291
f 43 291 33
f 35 331 292
f 44 292 34
f 30 327 293
f 41 293 29
f 26 325 294
f 606 294 37
f 150 522 608
f 48 419 296
f 624 419 47
f 156 537 570
f 627 155 448
f 60 360 617
f 297 59 585
f 132 432 298
f 298 139 496
f 40 289 299
f 47 299 39
f 141 498 300
f 62 301 43
f 525 149 302
f 263 302 533
f 136 303 128
f 128 424 304
f 135 304 127
f 263 592 305
f 634 496 265
f 74 633 52
f 217 339 306
f 228 306 216
f 216 350 307
f 227 307 215
f 218 351 308
f 229 308 217
f 215 508 309
f 226 309 214
f 57 273 310
f 66 310 56
f 230 311 218
f 214 405 312
f 237 312 225
f 220 407 313
f 231 313 219
f 225 433 314
f 236 314 224
f 221 435 315
f 232 315 220
f 592 533 316
f 316 149 167
f 235 317 223
f 222 455 318
f 233 318 221
f 223 457 319
f 234 319 222
f 48 320 40
f 137 321 129
f 21 485 322
f 32 322 20
f 16 489 323
f 27 323 15
f 24 480 324
f 35 324 23
f 14 483 325
f 37 325 25
f 22 488 326
f 33 326 21
f 18 484 327
f 29 327 17
f 20 487 328
f 31 328 19
f 19 486 329
f 30 329 18
f 25 482 330
f 36 330 24
f 23 479 331
f 34 331 22
f 17 481 332
f 28 332 16
f 15 490 333
f 26 333 14
f 134 334 126
f 43 283 335
f 287 324 35
f 288 332 28
f 289 323 27
f 290 328 31
f 283 322 32
f 291 326 33
f 292 331 34
f 294 325 37
f 285 333 26
f 286 329 30
f 293 327 29
f 284 330 36
f 153 616 502
f 621 616 152
f 162 605 337
f 337 161 173
f 609 338 48
f 216 339 204
f 189 569 340
f 340 188 200
f 9 8 341
f 341 8 581
f 8 7 342
f 342 7 575
f 3 2 343
f 490 343 576
f 11 10 344
f 344 10 582
f 10 9 345
f 345 9 583
f 2 13 578
f 7 6 579
f 4 3 584
f 6 5 346
f 346 5 347
f 5 4 347
f 347 4 577
f 13 12 348
f 348 12 636
f 135 334 349
f 146 349 134
f 204 404 350
f 215 350 203
f 217 351 205
f 163 596 352
f 352 162 174
f 115 573 353
f 353 114 125
f 50 293 354
f 49 354 41
f 51 290 355
f 60 355 42
f 142 501 356
f 152 356 141
f 114 500 357
f 124 357 113
f 188 375 358
f 358 187 199
f 179 567 359
f 359 189 201
f 42 286 360
f 61 355 361
f 60 361 355
f 214 362 202
f 6 7 363
f 1 363 363
f 363 363 7
f 7 369 363
f 11 12 364
f 1 364 364
f 364 364 12
f 12 373 364
f 8 9 365
f 1 365 365
f 365 365 9
f 9 367 365
f 10 11 366
f 1 366 366
f 366 366 11
f 364 366 11
f 367 9 10
f 1 367 367
f 367 367 10
f 366 367 10
f 1 368 368
f 368 368 2
f 3 368 2
f 13 2 368
f 369 7 8
f 1 369 369
f 369 369 8
f 365 369 8
f 368 3 370
f 1 370 370
f 370 370 3
f 4 370 3
f 5 6 371
f 1 371 371
f 371 371 6
f 363 371 6
f 4 5 374
f 1 372 372
f 372 372 5
f 371 372 5
f 373 12 13
f 1 373 373
f 373 373 13
f 368 373 13
f 370 4 374
f 1 374 374
f 374 374 4
f 372 374 5
f 625 590 375
f 138 376 130
f 354 293 41
f 335 283 51
f 279 292 44
f 284 615 377
f 285 38 277
f 299 289 39
f 355 290 42
f 291 43 301
f 287 45 378
f 271 378 45
f 294 606 270
f 288 40 320
f 360 286 50
f 218 379 206
f 380 115 126
f 145 381 125
f 161 604 382
f 382 160 172
f 267 79 383
f 268 383 79
f 384 604 161
f 272 384 605
f 52 301 385
f 243 386 231
f 248 387 236
f 229 388 241
f 240 388 228
f 242 389 230
f 245 390 233
f 236 402 248
f 247 402 235
f 239 392 227
f 244 393 232
f 238 394 226
f 241 395 229
f 235 401 247
f 246 401 234
f 226 397 238
f 249 397 237
f 76 542 67
f 629 589 399
f 186 399 178
f 143 400 112
f 314 236 387
f 309 226 394
f 306 228 388
f 311 230 389
f 313 231 386
f 315 232 393
f 318 233 390
f 312 237 397
f 307 227 392
f 308 229 395
f 319 234 401
f 396 401 246
f 317 235 402
f 391 402 247
f 97 96 403
f 403 96 591
f 203 404 191
f 225 405 213
f 191 431 406
f 202 406 190
f 208 476 407
f 219 407 207
f 408 524 95
f 408 95 603
f 525 409 167
f 409 148 166
f 49 474 354
f 632 242 599
f 391 410 597
f 250 411 601
f 411 536 239
f 535 599 242
f 413 241 600
f 631 243 632
f 602 245 598
f 393 414 598
f 396 415 410
f 415 246 602
f 397 416 601
f 630 248 597
f 388 417 600
f 320 48 338
f 279 52 633
f 418 72 81
f 299 47 419
f 296 419 624
f 385 301 62
f 204 420 192
f 86 421 65
f 271 53 422
f 623 422 53
f 277 46 423
f 273 423 563
f 117 505 424
f 127 424 116
f 187 399 425
f 198 425 186
f 190 359 426
f 213 426 201
f 377 54 427
f 269 427 54
f 270 55 428
f 266 428 556
f 164 450 429
f 175 429 163
f 280 78 430
f 267 430 78
f 180 491 431
f 190 431 179
f 121 543 432
f 139 432 131
f 213 454 433
f 224 433 212
f 61 335 51
f 125 357 434
f 144 434 124
f 209 492 435
f 220 435 208
f 257 437 258
f 262 262 436
f 436 436 262
f 259 436 447
f 256 439 437
f 262 262 437
f 437 437 262
f 436 437 262
f 260 442 261
f 262 262 438
f 438 438 262
f 438 262 440
f 255 444 439
f 262 262 439
f 439 439 262
f 437 439 262
f 251 250 440
f 438 440 250
f 262 440 440
f 440 250 440
f 252 446 441
f 262 262 441
f 441 441 262
f 445 253 441
f 259 447 442
f 262 262 442
f 442 442 262
f 438 442 262
f 440 262 443
f 262 262 443
f 443 443 262
f 252 443 446
f 254 445 444
f 262 262 444
f 444 444 262
f 439 444 262
f 441 262 445
f 262 262 445
f 445 445 262
f 444 445 262
f 443 262 446
f 262 262 446
f 446 446 262
f 441 446 262
f 436 262 447
f 262 262 447
f 447 447 262
f 442 447 262
f 59 360 50
f 448 605 162
f 194 549 449
f 205 449 193
f 157 540 450
f 450 156 570
f 112 517 451
f 123 451 111
f 170 560 452
f 223 453 211
f 212 454 200
f 221 455 209
f 178 554 456
f 185 456 177
f 211 478 457
f 222 457 210
f 87 97 458
f 458 97 108
f 133 463 459
f 140 459 132
f 160 594 172
f 171 460 159
f 153 461 142
f 62 335 462
f 72 462 61
f 132 463 121
f 118 516 464
f 128 464 117
f 206 553 194
f 466 509 626
f 211 467 199
f 123 468 501
f 133 501 122
f 142 451 123
f 122 468 110
f 186 456 469
f 197 469 185
f 65 635 470
f 85 470 64
f 471 515 148
f 264 471 148
f 274 338 609
f 633 74 472
f 296 624 57
f 278 296 57
f 623 63 473
f 474 49 58
f 275 474 565
f 462 335 61
f 273 563 56
f 310 273 56
f 181 538 475
f 191 475 180
f 635 574 64
f 470 635 64
f 297 360 59
f 361 60 617
f 266 65 421
f 196 548 476
f 207 476 195
f 515 595 166
f 165 477 497
f 210 478 198
f 344 582 479
f 331 479 22
f 636 580 480
f 324 480 23
f 332 481 16
f 330 482 24
f 325 483 25
f 327 484 17
f 341 581 485
f 322 485 20
f 329 486 18
f 328 487 19
f 345 583 488
f 326 488 21
f 323 489 15
f 333 490 14
f 129 518 118
f 171 531 491
f 179 491 170
f 208 492 196
f 80 268 561
f 282 493 80
f 103 573 494
f 198 469 495
f 209 495 197
f 298 496 513
f 62 541 385
f 349 146 497
f 165 497 528
f 459 140 498
f 300 498 622
f 115 499 104
f 103 611 500
f 113 500 102
f 133 141 501
f 502 594 160
f 276 502 160
f 177 504 503
f 184 503 176
f 165 528 504
f 176 504 164
f 349 334 134
f 459 463 132
f 121 523 109
f 298 432 139
f 106 544 505
f 116 505 105
f 304 135 506
f 620 506 135
f 94 507 82
f 379 218 311
f 314 433 224
f 313 407 219
f 312 405 225
f 362 214 508
f 309 508 214
f 308 351 217
f 315 435 220
f 453 223 317
f 306 339 216
f 319 457 222
f 318 455 221
f 307 350 215
f 112 610 101
f 84 473 63
f 84 83 509
f 626 509 83
f 376 138 510
f 303 136 511
f 451 142 461
f 134 381 512
f 157 512 540
f 281 513 150
f 321 137 514
f 356 501 141
f 620 147 515
f 477 515 147
f 130 521 119
f 117 516 106
f 101 607 517
f 111 517 100
f 154 465 143
f 131 527 120
f 512 381 145
f 118 518 107
f 110 519 99
f 93 520 81
f 108 613 120
f 295 522 592
f 156 434 537
f 99 530 523
f 109 523 98
f 85 473 524
f 95 524 84
f 264 148 525
f 409 525 148
f 196 526 184
f 98 458 527
f 120 527 108
f 497 146 528
f 157 528 146
f 152 300 621
f 158 529 151
f 192 557 181
f 88 87 530
f 98 530 87
f 159 529 531
f 170 531 158
f 67 310 532
f 75 532 66
f 316 533 149
f 417 388 240
f 414 393 244
f 632 389 242
f 410 391 247
f 415 396 246
f 416 397 249
f 630 387 248
f 602 390 245
f 631 386 243
f 394 238 534
f 411 534 601
f 395 241 535
f 413 535 241
f 392 239 536
f 412 536 411
f 434 144 537
f 155 537 144
f 180 538 171
f 74 541 539
f 82 539 73
f 512 145 540
f 156 540 145
f 176 429 548
f 195 548 175
f 462 72 418
f 532 310 66
f 464 128 303
f 541 62 73
f 539 541 73
f 278 67 542
f 304 424 127
f 501 468 122
f 518 129 321
f 400 143 465
f 380 126 334
f 523 121 463
f 521 130 376
f 434 357 124
f 527 131 543
f 432 543 131
f 353 125 381
f 626 94 544
f 105 544 94
f 421 86 545
f 546 617 71
f 282 546 493
f 92 547 80
f 193 549 182
f 86 612 550
f 96 550 85
f 274 68 551
f 280 551 559
f 472 74 83
f 553 206 379
f 433 454 212
f 407 476 207
f 426 213 405
f 467 211 453
f 449 205 351
f 435 492 208
f 406 202 362
f 297 70 552
f 268 552 383
f 420 204 339
f 457 478 210
f 350 404 203
f 495 209 455
f 195 558 553
f 194 553 183
f 166 595 554
f 177 595 165
f 275 69 555
f 267 555 430
f 266 556 65
f 173 382 557
f 181 557 172
f 175 352 558
f 183 558 174
f 182 549 173
f 542 77 559
f 280 559 77
f 628 560 169
f 91 561 79
f 75 545 562
f 97 562 86
f 495 469 197
f 475 191 404
f 406 431 190
f 526 196 492
f 557 192 420
f 425 198 478
f 476 548 195
f 426 359 201
f 358 199 467
f 449 549 193
f 340 200 454
f 164 528 157
f 178 409 166
f 563 423 46
f 266 563 428
f 89 88 564
f 99 564 88
f 565 551 69
f 275 565 69
f 475 538 180
f 469 456 185
f 431 491 179
f 503 184 526
f 625 566 168
f 425 399 186
f 567 628 189
f 359 567 189
f 90 568 78
f 358 375 187
f 553 558 183
f 398 188 569
f 340 569 188
f 570 596 163
f 87 571 75
f 629 572 167
f 464 516 117
f 451 517 111
f 519 110 468
f 424 505 116
f 610 112 400
f 499 115 380
f 357 500 113
f 573 103 114
f 353 573 114
f 623 64 574
f 269 574 635
f 575 486 19
f 342 575 487
f 348 636 482
f 346 347 484
f 343 2 576
f 578 576 2
f 577 489 16
f 347 577 481
f 348 25 578
f 346 18 579
f 580 479 23
f 581 487 20
f 582 488 22
f 583 485 21
f 584 490 15
f 275 70 585
f 297 585 70
f 94 93 586
f 104 586 93
f 89 587 77
f 88 588 76
f 491 531 170
f 337 173 549
f 503 504 176
f 409 178 589
f 399 589 178
f 566 625 398
f 460 171 538
f 456 554 177
f 558 352 174
f 452 560 628
f 572 629 590
f 375 590 629
f 557 382 172
f 548 429 175
f 591 614 119
f 403 591 613
f 316 168 592
f 295 592 168
f 531 529 158
f 504 528 164
f 593 169 560
f 450 570 163
f 429 450 163
f 336 159 594
f 460 594 159
f 554 595 177
f 592 522 634
f 352 596 162
f 410 260 597
f 630 597 260
f 414 257 598
f 602 598 257
f 415 259 410
f 631 256 414
f 631 632 255
f 412 411 251
f 413 254 599
f 632 599 254
f 417 253 600
f 413 600 253
f 601 534 238
f 412 252 417
f 415 602 258
f 630 261 416
f 466 107 603
f 408 603 614
f 276 160 604
f 382 604 160
f 605 384 161
f 337 605 161
f 377 55 606
f 270 606 55
f 90 89 607
f 100 607 89
f 295 169 608
f 281 608 593
f 278 68 609
f 274 609 68
f 302 137 511
f 93 92 494
f 103 494 92
f 496 150 513
f 551 430 69
f 532 75 571
f 418 81 520
f 305 138 514
f 542 76 588
f 539 82 507
f 91 90 610
f 101 610 90
f 562 545 86
f 282 80 547
f 280 77 587
f 92 91 611
f 102 611 91
f 470 85 612
f 550 612 85
f 268 79 561
f 267 78 568
f 524 473 84
f 586 104 499
f 523 530 98
f 564 99 519
f 505 544 105
f 527 458 108
f 302 514 137
f 466 106 516
f 517 607 100
f 500 611 102
f 613 591 119
f 521 613 119
f 614 603 107
f 518 614 107
f 271 54 615
f 377 615 54
f 300 622 151
f 529 300 151
f 302 149 533
f 593 608 169
f 450 540 156
f 477 165 595
f 356 152 616
f 336 616 621
f 297 71 617
f 361 617 546
f 555 383 70
f 471 511 136
f 302 264 525
f 627 537 155
f 295 168 566
f 461 153 618
f 276 618 153
f 316 167 572
f 465 154 619
f 272 619 154
f 471 506 620
f 506 471 136
f 529 159 621
f 336 621 159
f 622 498 140
f 281 622 140
f 559 68 542
f 485 581 20
f 488 583 21
f 489 584 15
f 479 582 22
f 636 24 482
f 577 16 481
f 480 580 23
f 575 19 487
f 486 579 18
f 483 578 25
f 347 17 484
f 576 14 490
f 574 422 623
f 422 574 54
f 273 57 624
f 556 55 427
f 375 188 625
f 398 625 188
f 515 166 148
f 544 106 626
f 466 626 106
f 448 162 627
f 596 627 162
f 522 496 634
f 305 510 138
f 525 167 149
f 398 189 628
f 452 628 567
f 399 187 629
f 375 629 187
f 393 598 245
f 391 597 248
f 390 602 246
f 396 410 247
f 388 600 241
f 416 249 630
f 387 630 249
f 414 244 631
f 386 631 244
f 411 239 534
f 397 601 238
f 417 240 412
f 389 632 243
f 63 53 633
f 265 305 634
f 592 634 305
f 65 556 635
f 269 635 556
f 12 11 636
f 580 636 11
