# File exported by Houdini 19.5.303 (www.sidefx.com)
# 666 points
# 4200 vertices
# 1400 primitives
# Bounds: [-0.166144222, -0.490650505, -0.609789133] to [2.15488648, 0.568932176, 0.470567197]
g 
v -0.111163348 3.91537107e-12 0
v -0.0800941586 0.000272330857 -0.221597537
v -0.0179134514 -0.106795974 -0.185307607
v 0.0277890041 -0.180664599 -0.103643999
v 0.0310841575 -0.207523108 -0.00108050264
v -0.0318268687 -0.186628029 0.108015791
v -0.0293114278 -0.107716776 0.186492145
v -0.0107891671 -0.000600726402 0.213262394
v -0.0846381038 0.110937089 0.192644015
v -0.134242564 0.197796598 0.114008568
v -0.15432024 0.230894864 0.00125539978
v -0.139199346 0.198102415 -0.11536099
v -0.107242085 0.112905711 -0.194821119
v -0.0212416276 0.00862044562 -0.37295562
v 0.0407552123 -0.177685425 -0.297889352
v 0.0477556773 -0.293384314 -0.169059813
v 0.0451919958 -0.338559359 0.00855401997
v -0.0358724482 -0.319567293 0.193287671
v -0.0594016463 -0.20055227 0.337947786
v 0.0105091035 0.0118012242 0.355923146
v -0.054445751 0.201075271 0.333133459
v -0.070661217 0.335195512 0.196622208
v -0.0946293324 0.403747469 -0.00265767216
v -0.0580983311 0.344442964 -0.189310834
v 0.0119382348 0.174612299 -0.313107014
v 0.0202172846 0.0003206619 -0.463799596
v 0.0481798127 -0.181969777 -0.314727277
v 0.0420567915 -0.334736764 -0.192492351
v 0.0546017215 -0.352545828 0.000848729978
v 0.0292440765 -0.37150377 0.215752661
v 0.0151658654 -0.23587139 0.408949018
v 0.0332169868 0.000830483797 0.418267816
v 0.0152996546 0.242146283 0.418198168
v 0.00889418088 0.43152073 0.24872683
v -0.00107753649 0.526702762 -1.99560927e-05
v 0.0244587511 0.386491418 -0.222948954
v 0.0433900841 0.19161965 -0.33172971
v 0.124671295 7.30196625e-05 -0.420372754
v 0.126761287 -0.20092389 -0.348100096
v 0.124310032 -0.319110692 -0.184326977
v 0.119459346 -0.344940305 4.2854972e-05
v 0.118038461 -0.317411602 0.183227077
v 0.1252909 -0.222123072 0.384624511
v 0.125263304 -7.10428067e-05 0.408296674
v 0.133298174 0.249698594 0.432601571
v 0.135074034 0.476194113 0.275136203
v 0.134319261 0.550825953 -9.06528439e-05
v 0.127411574 0.388906926 -0.224436477
v 0.117166251 0.17269823 -0.29904002
v 0.217327163 2.75273997e-05 -0.400365055
v 0.223001778 -0.207643464 -0.35963279
v 0.221600726 -0.32475245 -0.187515572
v 0.218591869 -0.406454802 -5.20652702e-06
v 0.214103982 -0.311788917 0.180008829
v 0.217298388 -0.213270754 0.36928013
v 0.218110874 1.31007946e-05 0.367696881
v 0.221643329 0.24105826 0.417481095
v 0.221615911 0.474707007 0.274035513
v 0.222202584 0.568932176 0.000199758491
v 0.219095483 0.390876591 -0.225684494
v 0.214047432 0.180687636 -0.312945575
v 0.31399557 -1.94577406e-05 -0.432051092
v 0.320410967 -0.197640404 -0.34226492
v 0.32043004 -0.321783245 -0.185742423
v 0.315064549 -0.415913135 2.23008965e-06
v 0.313467294 -0.350390702 0.202315599
v 0.313712746 -0.226168036 0.391567349
v 0.315924913 -4.23718811e-05 0.377540529
v 0.315285832 0.218328342 0.378197223
v 0.3141509 0.404920936 0.233709484
v 0.311364979 0.51384455 8.84343244e-05
v 0.312252879 0.404622793 -0.233563155
v 0.312623739 0.208429515 -0.361059964
v 0.407808602 -7.79771435e-05 -0.483699888
v 0.416353196 -0.209807977 -0.363246351
v 0.41828379 -0.334765524 -0.19323568
v 0.410292 -0.45295459 8.11227292e-05
v 0.40747264 -0.420003921 0.242602825
v 0.408329189 -0.236297309 0.409346193
v 0.41275239 5.01396898e-05 0.405706108
v 0.411756098 0.211565465 0.366327435
v 0.412660331 0.359941751 0.207737043
v 0.410567582 0.413603663 -3.76148091e-05
v 0.406142443 0.410107911 -0.236864328
v 0.406573862 0.242837191 -0.420739979
v 0.491514981 -0.000169902938 -0.519950628
v 0.500976324 -0.238928676 -0.41340676
v 0.514231503 -0.34851405 -0.201037228
v 0.505707085 -0.43892774 0.000180658826
v 0.493749052 -0.43972832 0.254067838
v 0.50446409 -0.223954275 0.388279557
v 0.504871547 0.000184947203 0.441565305
v 0.509063423 0.209818572 0.363041341
v 0.514343619 0.339973658 0.196077883
v 0.51628828 0.370619059 -0.000148034916
v 0.506122649 0.365831584 -0.211402878
v 0.485829026 0.272391319 -0.472203761
v 0.610007048 3.85365856e-05 -0.609789133
v 0.605849683 -0.23508133 -0.407233894
v 0.603559017 -0.340439618 -0.196580946
v 0.605517387 -0.457682788 -2.80532022e-05
v 0.608460784 -0.47801137 0.275944948
v 0.60586375 -0.234758526 0.4065561
v 0.604876995 -2.50048924e-05 0.436298847
v 0.605018914 0.219596237 0.380403608
v 0.603882432 0.348735541 0.201372802
v 0.60265708 0.362226903 3.74779484e-06
v 0.60469538 0.37381494 -0.21578595
v 0.608896554 0.285498261 -0.494424582
v 0.744194925 0.000424528582 -0.55018419
v 0.702719152 -0.206418306 -0.358046621
v 0.691320181 -0.324375838 -0.187520891
v 0.700697422 -0.397391528 -0.000299843581
v 0.722194552 -0.401657999 0.231596306
v 0.7135427 -0.222326696 0.384587586
v 0.704025567 -0.000294455705 0.410745382
v 0.705349982 0.205859765 0.356975406
v 0.674193501 0.266483516 0.154258698
v 0.678543866 0.313572735 0.000207035642
v 0.701963246 0.344418883 -0.198636547
v 0.735973477 0.260391682 -0.450567454
v 0.809533119 9.41936305e-05 -0.442148149
v 0.789753258 -0.181974858 -0.315355182
v 0.787016094 -0.309086919 -0.178605646
v 0.784422398 -0.323368669 -0.000202284733
v 0.805497706 -0.352339685 0.203280121
v 0.802879214 -0.20959872 0.362810671
v 0.808373332 -0.000254278624 0.440333188
v 0.802505732 0.201088458 0.348571509
v 0.767448306 0.216161758 0.124705963
v 0.776236653 0.272690058 0.000284430484
v 0.795523584 0.321778327 -0.185662657
v 0.82408762 0.256961077 -0.444841653
v 0.894364953 6.85150226e-05 -0.363288611
v 0.885140121 -0.155413359 -0.269279599
v 0.882911861 -0.263169587 -0.151986271
v 0.881151617 -0.269029975 1.90693827e-05
v 0.894174993 -0.294564009 0.170020729
v 0.893807828 -0.185096145 0.32043618
v 0.908164978 -0.000281189801 0.470567197
v 0.897626817 0.185265109 0.321018457
v 0.875529528 0.197458744 0.113680735
v 0.881490529 0.267314404 8.71456577e-05
v 0.891541243 0.303257316 -0.174938664
v 0.90716958 0.23302412 -0.403139055
v 0.9923715 4.49643812e-05 -0.364169657
v 0.986092329 -0.140631497 -0.243947789
v 0.985436678 -0.242375344 -0.139950454
v 0.984491885 -0.273359358 8.79443978e-05
v 0.991624594 -0.275796324 0.159130007
v 0.991633773 -0.17125155 0.296490639
v 0.996591687 -3.66233326e-05 0.402511477
v 0.993093371 0.162318751 0.28111887
v 0.982527256 0.188267708 0.108899936
v 0.98634094 0.297123253 -4.45417973e-05
v 0.991420388 0.332606107 -0.192010105
v 0.997683585 0.2201882 -0.380988032
v 1.0898459 4.78352704e-05 -0.390929401
v 1.08748436 -0.139322698 -0.241401762
v 1.09090805 -0.290871352 -0.167961314
v 1.08796537 -0.318597347 3.89333945e-06
v 1.08996642 -0.287778586 0.166110545
v 1.08837485 -0.17687884 0.306302637
v 1.08999133 -8.4824751e-06 0.376333088
v 1.08969104 0.157381639 0.272642434
v 1.08485937 0.203026682 0.117372245
v 1.08492339 0.309391886 5.74346814e-06
v 1.08752024 0.372896314 -0.215176523
v 1.09153533 0.221118718 -0.382974595
v 1.18417537 1.36550088e-05 -0.400064945
v 1.18646479 -0.156385168 -0.27080667
v 1.18905377 -0.337301672 -0.194766223
v 1.18670321 -0.382350206 1.0098106e-05
v 1.18693817 -0.339689106 0.196073353
v 1.18306077 -0.17880857 0.309696674
v 1.18413544 -8.59730426e-06 0.350889772
v 1.18444991 0.179827988 0.311501145
v 1.18200636 0.232841492 0.134411156
v 1.18362558 0.33793208 -3.07660339e-05
v 1.18369162 0.411113441 -0.237248868
v 1.18523788 0.229845405 -0.398208708
v 1.28293967 -8.65038146e-06 -0.434157908
v 1.28356516 -0.173232079 -0.300090939
v 1.28732562 -0.363197088 -0.209608406
v 1.2858181 -0.463690877 -0.000104389619
v 1.28385282 -0.338597059 0.195485771
v 1.27862394 -0.189347312 0.327984303
v 1.27962792 -7.24414167e-06 0.355644792
v 1.27959764 0.174113348 0.301636279
v 1.27611732 0.267175049 0.154252142
v 1.28031814 0.370257527 -2.65539547e-05
v 1.28137398 0.418448687 -0.241611987
v 1.28265011 0.228312016 -0.395257473
v 1.38454354 0.000197361573 -0.431959599
v 1.38261259 -0.187223926 -0.324398428
v 1.3914355 -0.415307581 -0.239657432
v 1.38828599 -0.461506397 -0.000313971657
v 1.38420701 -0.366749585 0.211894065
v 1.37710071 -0.184287935 0.319117308
v 1.37747967 -7.801834e-05 0.354266196
v 1.37730372 0.169518635 0.293588459
v 1.37238657 0.283665359 0.163800985
v 1.37992418 0.428517669 0.000125424529
v 1.38166678 0.397806823 -0.229545996
v 1.3853246 0.243713871 -0.422589362
v 1.47786462 -0.000188764549 -0.411771566
v 1.47888732 -0.196451396 -0.340487808
v 1.48218977 -0.411357164 -0.236999273
v 1.48074377 -0.444831669 -0.000210355618
v 1.47850192 -0.340664059 0.196832612
v 1.47733283 -0.152324811 0.263761878
v 1.47745371 -6.03621302e-05 0.277969331
v 1.47892332 0.132642463 0.229524076
v 1.47331643 0.290399402 0.167610109
v 1.4708339 0.377031446 -2.38721805e-06
v 1.47372782 0.3725411 -0.21528551
v 1.4762671 0.243805528 -0.421389908
v 1.5606997 -0.000213572683 -0.431878477
v 1.55673814 -0.236435309 -0.409907728
v 1.5589509 -0.412838936 -0.237981945
v 1.56552613 -0.421453476 8.88192008e-05
v 1.57378006 -0.300219208 0.173588738
v 1.58942842 -0.132123187 0.228628695
v 1.5941776 0.000217380264 0.223986328
v 1.59016693 0.127897501 0.221224114
v 1.57838535 0.260093749 0.150200307
v 1.56617594 0.341761529 -2.17960405e-05
v 1.56043744 0.349867463 -0.202018917
v 1.55235744 0.239994586 -0.41584751
v 1.64850056 -0.000192800566 -0.444759309
v 1.64099276 -0.244912311 -0.423172116
v 1.63711131 -0.457277179 -0.264660746
v 1.65493524 -0.440776885 0.00013714649
v 1.67605162 -0.274405003 0.158480421
v 1.69218111 -0.124843046 0.217212394
v 1.69175839 -0.000343907363 0.242427662
v 1.68726242 0.126652956 0.219033748
v 1.67876542 0.262999475 0.151738301
v 1.6690793 0.342888087 3.92708316e-05
v 1.6559701 0.354123473 -0.204536244
v 1.64603567 0.227409929 -0.394161284
v 1.75602221 3.443475e-05 -0.411721826
v 1.74423623 -0.258866131 -0.448216498
v 1.75083506 -0.434763253 -0.250776529
v 1.76025546 -0.432098776 6.0974904e-05
v 1.77025867 -0.26852566 0.155320689
v 1.77725983 -0.130370498 0.22519809
v 1.77227008 -2.6554073e-05 0.25923425
v 1.7708832 0.120285586 0.20830515
v 1.77047157 0.257603317 0.148302108
v 1.76851618 0.346811295 -8.37987245e-05
v 1.75797403 0.368723392 -0.213017747
v 1.75102961 0.237608716 -0.411769927
v 1.85914946 1.94895747e-05 -0.402500331
v 1.85926497 -0.241085589 -0.417525679
v 1.86209333 -0.414521098 -0.23927936
v 1.85962272 -0.359004617 -1.83415141e-05
v 1.85698545 -0.251296818 0.145156682
v 1.85395348 -0.130547881 0.224970505
v 1.84606028 0.000255140301 0.262110412
v 1.84356451 0.115208104 0.198805735
v 1.85197413 0.236684352 0.137487143
v 1.86070931 0.36250782 -8.71437078e-06
v 1.86622167 0.409098536 -0.236022621
v 1.8638103 0.235365123 -0.407817662
v 1.95850074 0.00032814045 -0.382407099
v 1.95917571 -0.197290808 -0.341702014
v 1.95750976 -0.340956539 -0.197225049
v 1.95552135 -0.359827727 -0.000110397625
v 1.9410485 -0.262047023 0.150809467
v 1.92951405 -0.132274032 0.229496717
v 1.92183685 -3.79287376e-05 0.263887525
v 1.91568065 0.11441575 0.198288858
v 1.92830575 0.230864719 0.133845747
v 1.96367359 0.420886636 0.000235877567
v 1.98474014 0.429579347 -0.247091591
v 1.97472954 0.223651782 -0.387177706
v 2.05313015 0.000414404669 -0.360944033
v 2.04628634 -0.302924454 -0.175220415
v 2.00522637 -0.244751781 0.139852136
v 1.9968431 0.134825021 0.235861316
v 2.00591063 0.248504028 0.142448932
v 2.05858874 0.377778441 0.000380902988
v 2.08098435 0.351022065 -0.202794075
v 2.08772469 0.209963426 -0.362959027
v 2.11117625 0.000199314687 -0.3100124
v 2.07957125 -0.178577393 -0.307312012
v 2.06514001 -0.246155709 -0.140495211
v 2.04750276 -0.32017827 0.000283518748
v 2.00065804 -0.131484658 0.232609719
v 2.04074645 -0.00133170083 0.308192879
v 2.03112078 0.133843914 0.23913601
v 2.0626204 0.250217348 0.138731942
v 2.11601615 0.264602125 -0.154110521
v 2.1307621 0.160616234 -0.277387083
v 2.12476707 -2.35279294e-05 -0.177054584
v 2.07285428 -0.0849508941 -0.147362083
v 2.04297113 -0.144007295 -0.0826051161
v 2.03359389 -0.164793581 -0.000341585488
v 2.01579237 -0.140095294 0.0821154118
v 2.04035401 -0.0832223371 0.143503174
v 2.07325649 0.000152033259 0.169836208
v 2.08661866 0.0859467685 0.148689359
v 2.11622882 0.152243942 0.087911658
v 2.13262296 0.177802876 5.97714534e-05
v 2.13081574 0.153939873 -0.0888211578
v 2.15488648 0.0903522298 -0.156631857
v 2.08373237 1.23378179e-08 -4.76363601e-11
v 0.513353944 0.153266028 -0.572595954
v 0.539908051 0.333426535 -0.33361873
v 0.557900846 0.373527497 -0.100193314
v 0.541403055 -0.333057463 0.333219886
v 0.540802479 -0.454700023 0.121970654
v 0.54527384 -0.322651505 -0.322484851
v 0.534356415 -0.130135298 -0.485115886
v 0.551896274 0.29811722 0.297954023
v 0.554782033 0.105721965 0.394142717
v 0.548416376 -0.112943381 0.421914071
v 0.554916084 -0.395513773 -0.105867527
v 0.570624948 0.325593054 0.0871545449
v 0.710582316 0.14897342 -0.55457288
v 0.67994988 -0.451518089 0.121016525
v 0.682672977 -0.128727123 -0.481874704
v 0.644378543 -0.356609046 -0.0951687917
v 0.6499421 -0.26657477 -0.26679486
v 0.678288162 0.331938893 -0.330951631
v 0.660769641 -0.1093973 0.409040898
v 0.68238771 -0.338846326 0.337677538
v 0.653075814 0.363077402 -0.0970282182
v 0.657417893 0.101958342 0.380726904
v 0.626530647 0.283816934 0.0756201148
v 0.644840479 0.251222461 0.252014399
v 0.0771684796 0.255048096 -0.254228801
v 0.0819144547 -0.264148563 -0.263779014
v 0.0813874751 -0.102582693 -0.383237273
v 0.0851316527 0.485848069 -0.130213216
v 0.0768604279 -0.279542208 0.280764669
v 0.0775196031 -0.360034853 0.0978910923
v 0.0778853297 -0.289691836 -0.0762525648
v 0.0801253766 0.510035157 0.136479348
v 0.0796676651 -0.116547719 0.434468597
v 0.092108801 0.366623223 0.367658019
v 0.0814028829 0.10186404 0.375223875
v 0.0780901685 0.0954522118 -0.35411185
v 0.465602219 -0.292737156 -0.29260084
v 0.456471682 -0.326160371 0.326328814
v 0.463961869 0.277734518 0.277570963
v 0.454410851 0.325624198 -0.325805515
v 0.460117221 -0.114636354 -0.427241772
v 0.465886891 -0.373197347 -0.0999457389
v 0.457523912 -0.43353188 0.116285481
v 0.460937351 -0.107879296 0.402926892
v 0.45993039 0.109602936 0.408591807
v 0.457591057 0.402556866 -0.107963711
v 0.468395531 0.338283867 0.0905851349
v 0.446524233 0.139776379 -0.522203684
v 0.176673099 -0.292033672 -0.292004377
v 0.165837035 0.0934615657 -0.346320927
v 0.173733741 0.10506656 0.392003089
v 0.171836227 -0.0993854553 -0.36859417
v 0.171767607 -0.106450349 0.396382302
v 0.170366511 -0.326931298 -0.0879471749
v 0.16537565 -0.255391419 0.25537321
v 0.167224944 -0.359129429 0.0963858142
v 0.17566973 0.482009917 -0.129389673
v 0.165264055 0.237853706 -0.238198906
v 0.175681874 0.511574924 0.137747824
v 0.179655552 0.3829391 0.382550299
v 0.366338402 -0.389604777 -0.104216531
v 0.367893517 -0.0986921862 -0.36967203
v 0.371851385 -0.263660878 -0.26373446
v 0.363688052 0.283830881 0.283576071
v 0.363154858 0.102728158 0.383107245
v 0.360732108 -0.316005319 0.316074699
v 0.358938336 0.318513066 -0.319198281
v 0.361818522 0.404891044 0.108627208
v 0.361371338 -0.427444756 0.11497689
v 0.362018406 -0.110202558 0.410085857
v 0.357693046 0.463036299 -0.123725608
v 0.360459507 0.114068016 -0.427172542
v 0.262570381 0.0998248234 -0.373714477
v 0.265890449 0.0989657938 0.369097024
v 0.265159667 -0.102955811 0.382715583
v 0.262458652 -0.27174136 0.271212548
v 0.263641387 0.2640028 -0.264459282
v 0.264401019 0.461937875 0.123621836
v 0.266697913 0.362956703 0.36235714
v 0.267886937 -0.363224268 -0.0974854305
v 0.266999871 -0.0968505517 -0.361513644
v 0.271823168 -0.286787033 -0.287015051
v 0.264502317 0.472046733 -0.126053274
v 0.264317781 -0.388011754 0.104187496
v 0.604096591 -0.390623391 -0.104673475
v 0.604561687 0.108181283 0.403614789
v 0.601829052 0.313253582 0.083919242
v 0.603946805 0.385917962 -0.103444025
v 0.610140204 0.157729685 -0.588608325
v 0.60779506 -0.137734473 -0.514033079
v 0.607153356 -0.490650505 0.13148354
v 0.606726885 -0.346564174 0.346571714
v 0.605216205 -0.114805423 0.428432792
v 0.604429901 -0.292227298 -0.29222402
v 0.604470193 0.293892771 0.293884784
v 0.606527865 0.344563603 -0.344544917
v 0.758136749 0.302834034 -0.302660465
v 0.711069226 0.22469987 0.0604244843
v 0.736762106 0.314545065 -0.0841688216
v 0.737046063 -0.25282985 -0.253073633
v 0.760363162 -0.115615107 -0.432045221
v 0.750795782 -0.372683406 0.0996206924
v 0.734450996 -0.330939472 -0.0889771432
v 0.765934825 -0.320966125 0.320879877
v 0.748102129 0.0984082371 0.368010342
v 0.736168385 0.239465281 0.239614874
v 0.777793825 0.13167952 -0.490699708
v 0.753141582 -0.107497968 0.400231332
v 1.81230974 -0.0632216334 0.236133307
v 1.80766356 0.0578045025 0.216044828
v 1.81311607 0.364053398 -0.0975397527
v 1.81527495 0.297486693 0.0797461718
v 1.80740237 0.104742654 -0.390687555
v 1.80601597 -0.119675413 -0.446953267
v 1.81206369 -0.447778285 -0.119988799
v 1.81203568 -0.306277335 0.0819795057
v 1.81812727 -0.179574713 0.179528058
v 1.8102814 0.163756371 0.163883165
v 1.80907857 0.321132541 -0.321111768
v 1.80154109 -0.345644534 -0.345613301
v 0.832063317 -0.22599645 -0.226143122
v 0.842671692 -0.0955006108 -0.356462866
v 0.830444992 -0.294713348 -0.0792022943
v 0.837226748 -0.293630302 0.0783786774
v 0.852214873 -0.111442931 0.41531682
v 0.84825027 -0.267495781 0.267387241
v 0.830702722 0.200918674 0.200971901
v 0.851154864 0.10379491 0.388595313
v 0.836785436 0.293614745 -0.0785127878
v 0.818026602 0.196893722 0.0530683026
v 0.84847939 0.281019986 -0.280757159
v 0.858063996 0.11536409 -0.429786354
v -0.0182276182 0.338715017 0.337772489
v 0.0355013981 0.10465762 0.36859706
v -0.0221212693 0.432791114 -0.115134276
v -0.0630793944 0.46266675 0.120930389
v 0.0443262979 0.101813823 -0.373351306
v 0.0146354074 0.283890903 -0.277083337
v 0.0165497921 -0.104112744 -0.389318973
v -0.02522243 -0.111290619 0.416467905
v -0.0219132565 -0.306293815 0.310020477
v 0.0588574335 -0.259845912 -0.258266568
v 0.0239963531 -0.376312137 0.107631072
v 0.0919894055 -0.31381011 -0.0790412724
v 1.91149938 -0.104539067 -0.390526026
v 1.91181242 -0.374319375 -0.100497179
v 1.89522302 -0.285091221 0.0760251209
v 1.88447118 -0.0636149943 0.237306222
v 1.87735116 0.0576213486 0.215494335
v 1.91097796 0.39231509 -0.10476391
v 1.90077364 0.32010293 0.0859022215
v 1.90846634 0.102401651 -0.38156572
v 1.9047159 -0.29513678 -0.29539457
v 1.89479971 -0.182675511 0.182597086
v 1.88100255 0.156301171 0.156633124
v 1.92832732 0.357458442 -0.357285708
v 1.68871427 -0.370294541 -0.369829416
v 1.69675076 -0.123351485 -0.459631681
v 1.71486425 -0.355034143 0.0951989219
v 1.73144948 -0.196185902 0.196451545
v 1.73397446 0.0589115918 0.219564319
v 1.72951722 0.181436196 0.181279927
v 1.71441579 0.352800071 -0.0946794972
v 1.70381844 0.304710537 -0.30490911
v 1.7020992 -0.477490395 -0.127736226
v 1.73665798 -0.0612014905 0.228697747
v 1.72437787 0.305074781 0.0816888064
v 1.70280468 0.108131297 -0.40390572
v -0.0834451541 0.269512415 0.271078438
v -0.0154543873 0.078112781 0.271529943
v -0.0827935189 0.191664428 -0.219972655
v -0.0162896309 -0.0395365283 0.285435259
v 0.0441951267 -0.199180827 -0.157637313
v -0.139174104 0.300457358 0.0705781505
v -0.11229828 0.218982399 0.174621522
v -0.051199194 0.0442743823 -0.267537743
v -0.0539040789 -0.217662588 0.212142438
v 0.0801221579 -0.262226075 -0.0683306083
v -0.0134283174 -0.272098809 0.0923577547
v 0.935851872 -0.203552023 -0.20328863
v 0.932897389 -0.267038167 -0.0725112706
v 0.942325532 -0.23543261 0.235354871
v 0.94647795 -0.104976587 0.392508656
v 0.934868038 0.177057773 0.177351862
v 0.927267313 0.20380266 0.0546785705
v 0.945681751 0.28362444 -0.283958554
v 0.950161994 0.105907522 -0.394801706
v 0.941072583 -0.0855173171 -0.316062093
v 0.936016381 -0.257818967 0.0689559132
v 0.947947323 0.0963983908 0.360234767
v 0.937719226 0.308123469 -0.082459107
v -0.16272518 0.114897579 0.000445344951
v -0.120915391 0.000216873043 -0.112542845
v -0.151003361 0.098763369 -0.0575324968
v -0.0134293102 -0.10651955 -0.000385753025
v -0.0511305518 -1.87888036e-05 0.108691238
v -0.0246598385 -0.092920877 -0.0535275973
v -0.166144222 0.0998382643 0.0575696751
v -0.0961840302 0.0555355772 0.0964352414
v -0.0306964368 -0.0538031086 0.0931897163
v -0.0746810287 -0.0550426506 -0.0952312425
v -0.139356688 0.0570836179 -0.0984181091
v -0.028067328 -0.0928773433 0.053853482
v 1.03928936 -0.193194389 -0.192472324
v 1.04163623 -0.224646643 0.225267455
v 1.03808796 0.166702718 0.166099712
v 1.04174972 0.297182292 -0.296921313
v 1.03954852 -0.0871866792 -0.323441237
v 1.03849769 -0.283609748 -0.0764467344
v 1.0379349 -0.273503512 0.0735241994
v 1.04248047 -0.0954802781 0.355423063
v 1.04490972 0.0866986737 0.325365394
v 1.03457701 0.222882688 0.059761446
v 1.03710389 0.338350147 -0.0901058912
v 1.04468787 0.110708207 -0.410690069
v 1.59809983 -0.335783899 -0.335459918
v 1.63810849 -0.19394961 0.194237024
v 1.63520312 0.197126821 0.197005898
v 1.60335255 0.304405153 -0.304573566
v 1.64534044 0.05963853 0.222493231
v 1.60167193 -0.468383908 -0.125288978
v 1.60589039 -0.111602746 -0.415784717
v 1.61322951 -0.377547741 0.101327941
v 1.64844108 -0.0584391207 0.218417346
v 1.62196696 0.313852966 0.0840841681
v 1.61484993 0.338112772 -0.0907199308
v 1.59960258 0.115185514 -0.430642843
v 2.00228453 -0.0933267027 -0.349844128
v 1.99703574 -0.258021772 -0.257734716
v 1.99913263 -0.338950843 -0.0915260687
v 1.96954036 -0.182671189 0.179894671
v 1.96536958 -0.0687182546 0.253786236
v 1.95439029 0.0638274103 0.232687235
v 1.99081409 0.334220231 0.0851016566
v 2.0249052 0.31254971 -0.311846644
v 1.97569168 -0.273517311 0.0729593188
v 1.95401418 0.160169274 0.161522329
v 2.01811147 0.414141238 -0.109480888
v 2.00432539 0.0995147452 -0.369297475
v 1.13492453 -0.0795952156 -0.298286468
v 1.13973308 -0.226196989 -0.225971073
v 1.13813782 -0.337868065 0.0902591199
v 1.13899589 -0.240015537 0.238815099
v 1.13571465 -0.092418991 0.344554961
v 1.14006412 0.0854759365 0.319657654
v 1.13460433 0.183133617 0.182868734
v 1.13448358 0.38108319 -0.101920873
v 1.1356014 0.305027097 -0.305341244
v 1.13728559 0.117301524 -0.438170791
v 1.13695776 -0.338345617 -0.090451546
v 1.13589025 0.25740844 0.0681336895
v 1.23790336 -0.258049309 -0.258532941
v 1.23328984 -0.243261889 0.242230028
v 1.22745538 0.207137525 0.207452029
v 1.23125136 0.315333158 -0.314602852
v 1.23203635 -0.0831796229 -0.31086877
v 1.23773444 -0.393640935 -0.105078086
v 1.23540533 -0.381250799 0.101375319
v 1.22719967 -0.0929266363 0.347621083
v 1.23267186 0.0905568898 0.338362724
v 1.2302531 0.28474164 0.0752452388
v 1.23056352 0.405737936 -0.1094703
v 1.23473334 0.117754385 -0.440622687
v 1.33621597 -0.266833395 -0.266864955
v 1.32909167 -0.266127437 0.266666681
v 1.32171261 0.219486222 0.220322967
v 1.33328652 0.334438413 -0.334058404
v 1.33867097 -0.433973402 -0.116582952
v 1.32495594 -0.0982407853 0.367124707
v 1.32433414 0.322020769 0.0865169168
v 1.33444679 0.118013911 -0.441405177
v 1.33217037 -0.0903340131 -0.336841464
v 1.33513188 -0.410435736 0.110081196
v 1.32866418 0.0963420644 0.35892269
v 1.331025 0.405864954 -0.108734645
v 1.4314276 -0.0964828208 -0.360255271
v 1.43425059 -0.285517871 -0.285539865
v 1.43344223 -0.417993069 0.112032294
v 1.42957151 -0.249212146 0.249261752
v 1.42768669 0.0770205483 0.287439048
v 1.42368698 0.206253961 0.206252605
v 1.42584813 0.391153038 -0.104763746
v 1.43088651 0.336647809 -0.336623013
v 1.44092155 -0.475707412 -0.127435595
v 1.42462218 -0.0813587159 0.303624153
v 1.42301548 0.348576665 0.0934275612
v 1.43256497 0.119347468 -0.445241541
v 1.52427077 -0.104125589 -0.388352543
v 1.52017975 -0.312856138 -0.312698334
v 1.52448678 -0.443123043 -0.118671447
v 1.52079904 -0.38540253 0.103347883
v 1.53149962 -0.218013048 0.218197361
v 1.53317678 -0.0638641939 0.238431901
v 1.53670013 0.0589767173 0.219829127
v 1.5314312 0.203991652 0.203973562
v 1.52045238 0.313280016 0.0839491487
v 1.5166955 0.355216533 -0.0952609032
v 1.51537943 0.324333221 -0.324436337
v 1.5165714 0.119255237 -0.445326984
v -0.00376910716 0.0962450728 -0.33423847
v 0.0486157909 -0.234775186 -0.235953942
v 2.10313869 0.269616544 -0.269569606
v 1.99364293 -0.202374697 0.182280615
v 2.00735879 0.189326361 0.192069709
v 2.0687058 -0.235958919 -0.224141479
v 2.01509857 0.0812231079 0.266729087
v 2.06227922 -0.0775346458 -0.330000997
v 2.01020956 -0.278902829 0.0751885027
v 2.05058193 -0.312811911 -0.0943390578
v 2.01295471 -0.072791703 0.264623761
v 2.11106086 0.350700736 -0.0809118599
v 2.08417535 0.095212914 -0.353184968
v 2.01828861 -0.164627299 0.180089027
v 2.12385273 0.0733637214 -0.271493495
v 2.11958694 0.243561745 -0.0340332985
v 2.03514409 -0.228669375 0.0377165489
v 2.09425998 -0.0851908177 -0.251104891
v 2.11532044 0.196469292 -0.196366206
v 2.07153845 -0.158916682 -0.188868761
v 2.03903413 0.0543705076 0.219704568
v 2.05965161 -0.248679906 -0.0500458032
v 2.02345109 -0.0636574328 0.223928884
v 2.11107087 0.21863398 0.0698279589
v 2.06951404 0.157932833 0.163821489
v 2.07923317 1.84523525e-08 -0.085614197
v 2.04426408 -0.0837400481 -0.000209861479
v 2.09712958 0.0432363749 -0.0750036836
v 2.06219339 -0.0424875543 0.0732740536
v 2.08949804 -7.99495465e-05 0.0861643031
v 2.10469532 0.07530763 -0.0435208119
v 2.05988789 -0.0421457812 -0.0733287334
v 2.11894727 0.0759895518 0.043867249
v 2.04558635 -0.072685428 0.0417270698
v 2.12130737 0.0878690034 0
v 2.10690832 0.0435227267 0.0754434764
v 2.0486834 -0.0726275593 -0.0421592668
v -0.0927825868 0.26852262 -0.185021952
v -0.0970656574 0.1787256 0.253682762
v 0.0221106671 -0.166563287 -0.238006771
v 0.0418273918 -0.251388699 0.0101656737
v -0.0550265536 -0.131723315 0.290399432
v -0.0272232834 0.1250467 -0.26875329
v 2.08670759 0.316165596 0.0547876395
v 2.03076792 -0.2347399 0.121787772
v -0.101776749 0.310572296 -0.076808393
v -0.0204262361 -0.0760038495 -0.289118916
v -0.0722958893 -0.0426479913 -0.159164444
v -0.152462155 0.163460553 -0.0437991284
v 0.0111447647 -0.184231862 0.0418643542
v 0.00248786062 -0.129089117 -0.118624948
v -0.0984727889 0.043035958 -0.179562196
v -0.0465916842 0.0501350015 0.175699696
v -0.161435813 0.186397612 0.0469313078
v -0.0288289003 -0.0420238338 0.156835064
v -0.118998125 0.135579199 0.127254337
v -0.0280391295 -0.114780262 0.114780262
v -0.128428906 0.131407157 -0.137221977
v 0.0192604288 -0.154257953 -0.0413333029
g 
f 501 1 1
f 1 501 509
f 509 1 1
f 1 509 505
f 505 1 1
f 1 505 503
f 503 1 1
f 1 503 511
f 511 1 1
f 1 511 508
f 508 1 1
f 1 508 504
f 504 1 1
f 1 504 507
f 507 1 1
f 1 507 506
f 506 1 1
f 1 506 500
f 500 1 1
f 1 500 502
f 502 1 1
f 1 502 510
f 510 1 1
f 1 510 501
f 647 3 654
f 15 654 447
f 16 481 609
f 648 5 486
f 17 486 452
f 485 6 487
f 18 487 451
f 649 7 485
f 19 485 449
f 20 480 448
f 646 9 478
f 21 478 442
f 22 483 477
f 482 653 11
f 23 482 444
f 645 12 653
f 24 653 443
f 650 13 479
f 25 479 446
f 14 484 608
f 447 27 15
f 450 28 16
f 452 29 17
f 451 30 18
f 449 31 19
f 448 32 20
f 442 33 21
f 22 441 34
f 441 22 477
f 444 35 23
f 443 36 24
f 446 37 25
f 445 26 14
f 335 39 27
f 334 40 28
f 40 334 357
f 339 41 29
f 338 42 30
f 42 338 364
f 337 43 31
f 43 337 363
f 341 44 32
f 44 341 361
f 343 45 33
f 342 46 34
f 46 342 368
f 340 47 35
f 47 340 367
f 336 48 36
f 333 49 37
f 49 333 366
f 344 38 26
f 38 344 358
f 360 51 39
f 51 360 389
f 357 52 40
f 362 53 41
f 53 362 388
f 364 54 42
f 363 55 43
f 55 363 384
f 361 56 44
f 359 57 45
f 57 359 382
f 368 58 46
f 367 59 47
f 59 367 386
f 365 60 48
f 60 365 391
f 366 61 49
f 358 50 38
f 50 358 381
f 389 63 51
f 63 389 370
f 390 64 52
f 388 65 53
f 392 66 54
f 66 392 377
f 384 67 55
f 67 384 374
f 383 68 56
f 68 383 378
f 382 69 57
f 69 382 373
f 387 70 58
f 70 387 372
f 386 71 59
f 71 386 376
f 391 72 60
f 72 391 379
f 385 73 61
f 73 385 375
f 381 62 50
f 62 381 380
f 370 75 63
f 371 76 64
f 369 77 65
f 77 369 350
f 377 78 66
f 78 377 351
f 374 79 67
f 378 80 68
f 80 378 352
f 373 81 69
f 372 82 70
f 376 83 71
f 379 84 72
f 84 379 354
f 375 85 73
f 85 375 348
f 380 74 62
f 74 380 356
f 349 87 75
f 345 88 76
f 350 89 77
f 351 90 78
f 346 91 79
f 352 92 80
f 353 93 81
f 347 94 82
f 355 95 83
f 354 96 84
f 348 97 85
f 356 86 74
f 315 99 87
f 99 315 398
f 314 100 88
f 100 314 402
f 319 101 89
f 101 319 393
f 313 102 90
f 102 313 399
f 312 103 91
f 103 312 400
f 318 104 92
f 104 318 401
f 317 105 93
f 105 317 394
f 316 106 94
f 106 316 403
f 320 107 95
f 107 320 395
f 311 108 96
f 108 311 396
f 310 109 97
f 109 310 404
f 309 98 86
f 98 309 397
f 323 111 99
f 111 323 409
f 325 112 100
f 112 325 408
f 324 113 101
f 113 324 411
f 322 114 102
f 114 322 410
f 328 115 103
f 115 328 412
f 327 116 104
f 116 327 416
f 330 117 105
f 117 330 413
f 332 118 106
f 118 332 414
f 331 119 107
f 119 331 406
f 329 120 108
f 120 329 407
f 326 121 109
f 121 326 405
f 321 110 98
f 110 321 415
f 409 123 111
f 123 409 430
f 408 124 112
f 124 408 429
f 411 125 113
f 125 411 431
f 410 126 114
f 412 127 115
f 416 128 116
f 128 416 433
f 413 129 117
f 414 130 118
f 130 414 435
f 406 131 119
f 407 132 120
f 405 133 121
f 133 405 439
f 415 122 110
f 430 135 123
f 429 136 124
f 136 429 488
f 431 137 125
f 137 431 489
f 432 138 126
f 434 139 127
f 433 140 128
f 140 433 491
f 436 141 129
f 141 436 498
f 435 142 130
f 438 143 131
f 143 438 493
f 437 144 132
f 439 145 133
f 145 439 494
f 440 134 122
f 496 147 135
f 488 148 136
f 489 149 137
f 149 489 517
f 497 150 138
f 490 151 139
f 151 490 513
f 491 152 140
f 152 491 519
f 498 153 141
f 492 154 142
f 493 155 143
f 155 493 521
f 499 156 144
f 156 499 522
f 494 157 145
f 495 146 134
f 516 159 147
f 159 516 548
f 512 160 148
f 517 161 149
f 518 162 150
f 162 518 550
f 513 163 151
f 519 164 152
f 520 165 153
f 514 166 154
f 521 167 155
f 522 168 156
f 168 522 555
f 515 169 157
f 523 158 146
f 158 523 557
f 548 171 159
f 171 548 564
f 549 172 160
f 558 173 161
f 173 558 565
f 550 174 162
f 174 550 566
f 551 175 163
f 552 176 164
f 176 552 567
f 553 177 165
f 554 178 166
f 178 554 562
f 559 179 167
f 555 180 168
f 180 555 570
f 556 181 169
f 181 556 563
f 557 170 158
f 564 183 171
f 560 184 172
f 565 185 173
f 566 186 174
f 561 187 175
f 187 561 573
f 567 188 176
f 188 567 577
f 568 189 177
f 189 568 582
f 562 190 178
f 190 562 574
f 569 191 179
f 191 569 578
f 570 192 180
f 563 193 181
f 571 182 170
f 580 195 183
f 572 196 184
f 576 197 185
f 197 576 592
f 581 198 186
f 573 199 187
f 199 573 587
f 577 200 188
f 200 577 593
f 582 201 189
f 574 202 190
f 202 574 589
f 578 203 191
f 203 578 594
f 583 204 192
f 575 205 193
f 205 575 591
f 579 194 182
f 194 579 595
f 584 207 195
f 207 584 596
f 585 208 196
f 592 209 197
f 586 210 198
f 210 586 599
f 587 211 199
f 593 212 200
f 212 593 601
f 588 213 201
f 589 214 202
f 594 215 203
f 590 216 204
f 216 590 605
f 591 217 205
f 217 591 606
f 595 206 194
f 596 219 207
f 597 220 208
f 220 597 524
f 598 221 209
f 599 222 210
f 600 223 211
f 601 224 212
f 602 225 213
f 603 226 214
f 604 227 215
f 227 604 533
f 605 228 216
f 228 605 534
f 606 229 217
f 607 218 206
f 218 607 535
f 530 231 219
f 524 232 220
f 529 233 221
f 531 234 222
f 234 531 467
f 525 235 223
f 532 236 224
f 528 237 225
f 526 238 226
f 533 239 227
f 534 240 228
f 527 241 229
f 535 230 218
f 230 535 476
f 466 243 231
f 243 466 422
f 465 244 232
f 244 465 428
f 473 245 233
f 467 246 234
f 468 247 235
f 247 468 425
f 474 248 236
f 469 249 237
f 249 469 418
f 470 250 238
f 250 470 426
f 475 251 239
f 471 252 240
f 252 471 419
f 472 253 241
f 253 472 427
f 476 242 230
f 422 255 243
f 255 422 453
f 428 256 244
f 256 428 461
f 423 257 245
f 257 423 454
f 424 258 246
f 258 424 455
f 425 259 247
f 417 260 248
f 260 417 456
f 418 261 249
f 261 418 457
f 426 262 250
f 262 426 463
f 420 263 251
f 419 264 252
f 427 265 253
f 265 427 464
f 421 254 242
f 254 421 460
f 453 267 255
f 461 268 256
f 268 461 537
f 454 269 257
f 455 270 258
f 462 271 259
f 456 272 260
f 272 456 540
f 457 273 261
f 273 457 541
f 463 274 262
f 459 275 263
f 275 459 542
f 458 276 264
f 276 458 546
f 464 277 265
f 460 266 254
f 536 287 267
f 287 536 615
f 537 279 268
f 279 537 613
f 538 289 269
f 289 538 617
f 544 280 270
f 280 544 616
f 539 290 271
f 290 539 611
f 540 291 272
f 291 540 618
f 541 281 273
f 281 541 614
f 545 282 274
f 282 545 612
f 542 283 275
f 283 542 651
f 546 284 276
f 284 546 619
f 543 285 277
f 285 543 610
f 547 278 266
f 278 547 620
f 287 615 625
f 288 279 613
f 289 617 629
f 652 280 616
f 292 281 614
f 293 282 612
f 294 284 619
f 295 285 610
f 295 610 626
f 286 278 620
f 625 627 287
f 297 625 296
f 627 298 288
f 298 627 297
f 629 624 289
f 299 629 298
f 624 300 652
f 300 624 299
f 621 630 290
f 301 621 300
f 630 628 291
f 302 630 301
f 628 632 292
f 303 628 302
f 632 631 293
f 304 632 303
f 631 623 651
f 305 631 304
f 623 306 294
f 306 623 305
f 626 307 295
f 307 626 306
f 622 296 286
f 296 622 307
f 639 297 633
f 297 639 639
f 297 639 298
f 298 644 644
f 634 299 644
f 299 634 634
f 299 634 300
f 300 641 641
f 636 301 641
f 301 636 636
f 301 636 302
f 302 637 637
f 302 637 303
f 303 643 643
f 640 304 643
f 304 640 640
f 304 640 305
f 305 642 642
f 638 306 305
f 306 638 638
f 635 307 306
f 307 635 635
f 307 635 633
f 308 308 633
f 86 356 309
f 109 309 97
f 97 348 310
f 108 310 96
f 96 354 311
f 107 311 95
f 91 346 312
f 102 312 90
f 90 351 313
f 101 313 89
f 88 345 314
f 99 314 87
f 87 349 315
f 98 315 86
f 94 347 316
f 105 316 93
f 93 353 317
f 104 317 92
f 92 352 318
f 103 318 91
f 89 350 319
f 100 319 88
f 95 355 320
f 106 320 94
f 98 397 321
f 121 321 109
f 102 399 322
f 113 322 101
f 99 398 323
f 110 323 98
f 101 393 324
f 112 324 100
f 100 402 325
f 111 325 99
f 109 404 326
f 120 326 108
f 104 401 327
f 115 327 103
f 103 400 328
f 114 328 102
f 108 396 329
f 119 329 107
f 105 394 330
f 116 330 104
f 107 395 331
f 118 331 106
f 106 403 332
f 117 332 105
f 37 446 333
f 48 333 36
f 28 450 334
f 39 334 27
f 27 447 335
f 38 335 26
f 36 443 336
f 47 336 35
f 31 449 337
f 42 337 30
f 30 451 338
f 41 338 29
f 29 452 339
f 40 339 28
f 35 444 340
f 46 340 34
f 32 448 341
f 43 341 31
f 34 441 342
f 45 342 33
f 33 442 343
f 44 343 32
f 26 445 344
f 49 344 37
f 76 371 345
f 87 345 75
f 79 374 346
f 90 346 78
f 82 372 347
f 93 347 81
f 96 348 84
f 75 370 349
f 86 349 74
f 88 350 76
f 89 351 77
f 91 352 79
f 81 373 353
f 92 353 80
f 95 354 83
f 83 376 355
f 94 355 82
f 97 356 85
f 51 357 39
f 61 358 49
f 45 343 359
f 56 359 44
f 39 335 360
f 50 360 38
f 55 361 43
f 41 339 362
f 52 362 40
f 54 363 42
f 53 364 41
f 48 336 365
f 59 365 47
f 60 366 48
f 58 367 46
f 57 368 45
f 65 388 369
f 76 369 64
f 74 370 62
f 64 390 371
f 75 371 63
f 81 372 69
f 80 373 68
f 78 374 66
f 84 375 72
f 82 376 70
f 77 377 65
f 79 378 67
f 83 379 71
f 85 380 73
f 73 381 61
f 68 382 56
f 56 361 383
f 67 383 55
f 66 384 54
f 61 366 385
f 72 385 60
f 70 386 58
f 58 368 387
f 69 387 57
f 64 388 52
f 62 389 50
f 52 357 390
f 63 390 51
f 71 391 59
f 54 364 392
f 65 392 53
f 319 100 393
f 324 393 100
f 317 104 394
f 330 394 104
f 320 106 395
f 331 395 106
f 311 107 396
f 329 396 107
f 309 109 397
f 321 397 109
f 315 98 398
f 323 398 98
f 313 101 399
f 322 399 101
f 312 102 400
f 328 400 102
f 318 103 401
f 327 401 103
f 314 99 402
f 325 402 99
f 316 105 403
f 332 403 105
f 310 108 404
f 326 404 108
f 132 405 120
f 130 406 118
f 131 407 119
f 123 408 111
f 122 409 110
f 125 410 113
f 124 411 112
f 126 412 114
f 128 413 116
f 129 414 117
f 133 415 121
f 127 416 115
f 248 474 417
f 259 417 247
f 260 418 248
f 263 419 251
f 251 475 420
f 262 420 250
f 242 476 421
f 265 421 253
f 254 422 242
f 245 473 423
f 256 423 244
f 246 467 424
f 257 424 245
f 258 425 246
f 261 426 249
f 264 427 252
f 255 428 243
f 135 429 123
f 134 430 122
f 136 431 124
f 126 410 432
f 137 432 125
f 139 433 127
f 127 412 434
f 138 434 126
f 141 435 129
f 129 413 436
f 140 436 128
f 132 407 437
f 143 437 131
f 131 406 438
f 142 438 130
f 144 439 132
f 122 415 440
f 145 440 133
f 21 33 441
f 342 441 33
f 20 32 442
f 343 442 32
f 23 35 443
f 336 443 35
f 22 34 444
f 340 444 34
f 25 37 445
f 344 445 37
f 24 36 446
f 333 446 36
f 14 26 447
f 335 447 26
f 19 31 448
f 341 448 31
f 18 30 449
f 337 449 30
f 15 27 450
f 334 450 27
f 17 29 451
f 338 451 29
f 16 28 452
f 339 452 28
f 314 345 87
f 312 346 90
f 316 347 93
f 310 348 96
f 315 349 86
f 319 350 88
f 313 351 89
f 318 352 91
f 317 353 92
f 320 355 94
f 311 354 95
f 309 356 97
f 266 453 254
f 268 454 256
f 269 455 257
f 271 456 259
f 272 457 260
f 264 419 458
f 275 458 263
f 263 420 459
f 274 459 262
f 277 460 265
f 267 461 255
f 259 425 462
f 270 462 258
f 273 463 261
f 276 464 264
f 232 524 465
f 243 465 231
f 231 530 466
f 242 466 230
f 245 467 233
f 235 525 468
f 246 468 234
f 237 528 469
f 248 469 236
f 238 526 470
f 249 470 237
f 240 534 471
f 251 471 239
f 241 527 472
f 252 472 240
f 233 529 473
f 244 473 232
f 236 532 474
f 247 474 235
f 239 533 475
f 250 475 238
f 253 476 241
f 14 608 445
f 16 609 450
f 441 477 21
f 323 110 409
f 325 111 408
f 324 112 411
f 322 113 410
f 328 114 412
f 327 115 416
f 330 116 413
f 332 117 414
f 331 118 406
f 329 119 407
f 326 120 405
f 321 121 415
f 478 660 8
f 478 8 480
f 479 665 12
f 479 12 645
f 8 7 480
f 480 7 649
f 481 658 3
f 481 3 647
f 12 11 653
f 3 2 654
f 482 661 10
f 482 10 483
f 483 663 9
f 483 9 646
f 484 659 13
f 484 13 650
f 7 6 485
f 5 4 486
f 486 4 481
f 487 657 648
f 648 657 5
f 334 39 357
f 337 42 363
f 342 45 368
f 333 48 366
f 360 335 38
f 362 339 40
f 338 41 364
f 341 43 361
f 359 343 44
f 340 46 367
f 365 336 47
f 344 49 358
f 147 488 135
f 148 489 136
f 139 434 490
f 150 490 138
f 151 491 139
f 142 435 492
f 153 492 141
f 154 493 142
f 156 494 144
f 134 440 495
f 157 495 145
f 135 430 496
f 146 496 134
f 138 432 497
f 149 497 137
f 152 498 140
f 144 437 499
f 155 499 143
f 345 371 75
f 346 374 78
f 347 372 81
f 375 84 348
f 349 370 74
f 369 76 350
f 377 77 351
f 378 79 352
f 353 373 80
f 355 376 82
f 379 83 354
f 380 85 356
f 11 500 661
f 1 500 500
f 500 500 11
f 656 500 11
f 1 501 501
f 501 501 2
f 655 501 2
f 2 501 659
f 500 656 502
f 1 502 502
f 502 502 12
f 665 502 12
f 5 503 666
f 1 503 503
f 503 503 5
f 657 503 5
f 8 504 662
f 1 504 504
f 504 504 8
f 660 504 8
f 4 505 658
f 1 505 505
f 505 505 4
f 503 505 666
f 10 506 663
f 1 506 506
f 506 506 10
f 500 506 661
f 504 660 507
f 1 507 507
f 507 507 9
f 506 507 663
f 7 508 664
f 1 508 508
f 508 508 7
f 504 508 662
f 501 655 509
f 1 509 509
f 509 509 3
f 505 509 658
f 502 665 510
f 1 510 510
f 510 510 13
f 501 510 659
f 503 657 511
f 1 511 511
f 511 511 6
f 508 511 664
f 360 50 389
f 390 357 51
f 362 52 388
f 392 364 53
f 363 54 384
f 383 361 55
f 359 56 382
f 387 368 57
f 367 58 386
f 365 59 391
f 385 366 60
f 358 61 381
f 384 66 374
f 371 390 63
f 387 69 372
f 385 72 375
f 392 65 377
f 382 68 373
f 386 70 376
f 391 71 379
f 381 73 380
f 383 67 378
f 389 62 370
f 369 388 64
f 148 488 512
f 159 512 147
f 162 513 150
f 154 492 514
f 165 514 153
f 157 494 515
f 168 515 156
f 147 496 516
f 158 516 146
f 160 517 148
f 150 497 518
f 161 518 149
f 163 519 151
f 153 498 520
f 164 520 152
f 166 521 154
f 167 522 155
f 146 495 523
f 169 523 157
f 231 524 219
f 223 600 525
f 234 525 222
f 226 603 526
f 237 526 225
f 229 606 527
f 240 527 228
f 225 602 528
f 236 528 224
f 221 598 529
f 232 529 220
f 219 596 530
f 230 530 218
f 222 599 531
f 233 531 221
f 224 601 532
f 235 532 223
f 238 533 226
f 239 534 227
f 241 535 229
f 267 453 536
f 278 536 266
f 287 537 267
f 269 454 538
f 279 538 268
f 271 462 539
f 280 539 270
f 290 540 271
f 291 541 272
f 282 542 274
f 277 464 543
f 284 543 276
f 270 455 544
f 289 544 269
f 274 463 545
f 281 545 273
f 283 546 275
f 266 460 547
f 285 547 277
f 170 548 158
f 160 512 549
f 171 549 159
f 173 550 161
f 163 513 551
f 174 551 162
f 164 519 552
f 175 552 163
f 165 520 553
f 176 553 164
f 166 514 554
f 177 554 165
f 179 555 167
f 169 515 556
f 180 556 168
f 181 557 169
f 161 517 558
f 172 558 160
f 167 521 559
f 178 559 166
f 172 549 560
f 183 560 171
f 175 551 561
f 186 561 174
f 189 562 177
f 192 563 180
f 182 564 170
f 184 565 172
f 185 566 173
f 187 567 175
f 177 553 568
f 188 568 176
f 179 559 569
f 190 569 178
f 191 570 179
f 170 557 571
f 193 571 181
f 184 560 572
f 195 572 183
f 198 573 186
f 201 574 189
f 193 563 575
f 204 575 192
f 185 565 576
f 196 576 184
f 199 577 187
f 202 578 190
f 182 571 579
f 205 579 193
f 183 564 580
f 194 580 182
f 186 566 581
f 197 581 185
f 200 582 188
f 192 570 583
f 203 583 191
f 195 580 584
f 206 584 194
f 196 572 585
f 207 585 195
f 198 581 586
f 209 586 197
f 210 587 198
f 201 582 588
f 212 588 200
f 213 589 201
f 204 583 590
f 215 590 203
f 216 591 204
f 208 592 196
f 211 593 199
f 214 594 202
f 217 595 205
f 218 596 206
f 208 585 597
f 219 597 207
f 209 592 598
f 220 598 208
f 221 599 209
f 211 587 600
f 222 600 210
f 223 601 211
f 213 588 602
f 224 602 212
f 214 589 603
f 225 603 213
f 215 594 604
f 226 604 214
f 227 605 215
f 228 606 216
f 206 595 607
f 229 607 217
f 414 129 435
f 438 406 130
f 437 407 131
f 405 132 439
f 440 415 133
f 408 123 429
f 411 124 431
f 432 410 125
f 434 412 126
f 409 122 430
f 416 127 433
f 436 413 128
f 421 265 460
f 417 259 456
f 424 257 455
f 458 419 263
f 459 420 262
f 422 254 453
f 418 260 457
f 423 256 454
f 462 425 258
f 428 255 461
f 427 264 464
f 426 261 463
f 469 248 418
f 421 476 253
f 420 475 250
f 471 251 419
f 417 474 247
f 423 473 244
f 424 467 245
f 466 242 422
f 472 252 427
f 468 246 425
f 465 243 428
f 470 249 426
f 496 430 134
f 497 432 137
f 495 440 145
f 438 142 493
f 431 136 489
f 433 139 491
f 436 140 498
f 499 437 143
f 490 434 138
f 492 435 141
f 429 135 488
f 439 144 494
f 547 460 277
f 458 275 546
f 459 274 542
f 536 453 266
f 538 454 268
f 457 272 541
f 544 455 269
f 456 271 540
f 543 464 276
f 539 462 270
f 461 267 537
f 545 463 273
f 465 524 231
f 468 525 234
f 470 526 237
f 472 527 240
f 473 529 232
f 471 534 239
f 535 241 476
f 475 533 238
f 466 530 230
f 531 233 467
f 474 532 235
f 469 528 236
f 445 608 25
f 478 20 442
f 487 17 451
f 482 22 444
f 486 16 452
f 480 649 448
f 481 647 609
f 450 609 15
f 479 645 446
f 485 18 449
f 512 488 147
f 490 150 513
f 514 492 153
f 515 494 156
f 516 496 146
f 489 148 517
f 518 497 149
f 491 151 519
f 520 498 152
f 493 154 521
f 499 155 522
f 523 495 157
f 549 512 159
f 551 513 162
f 554 514 165
f 556 515 168
f 516 158 548
f 558 517 160
f 518 161 550
f 552 519 163
f 553 520 164
f 559 521 166
f 522 167 555
f 523 169 557
f 561 186 573
f 575 563 192
f 572 560 183
f 562 189 574
f 581 566 185
f 579 571 193
f 580 564 182
f 576 565 184
f 567 187 577
f 583 570 191
f 568 188 582
f 569 190 578
f 560 549 171
f 554 177 562
f 556 180 563
f 561 551 174
f 568 553 176
f 550 173 566
f 555 179 570
f 571 557 181
f 548 170 564
f 558 172 565
f 569 559 178
f 552 175 567
f 574 201 589
f 575 204 591
f 585 572 195
f 573 198 587
f 576 196 592
f 584 580 194
f 590 583 203
f 578 202 594
f 577 199 593
f 586 581 197
f 588 582 200
f 579 205 595
f 528 602 224
f 532 601 223
f 607 229 535
f 525 600 222
f 530 596 218
f 529 598 220
f 597 219 524
f 526 603 225
f 605 227 534
f 527 606 228
f 604 226 533
f 531 599 221
f 603 589 213
f 597 585 207
f 600 587 210
f 591 216 606
f 598 592 208
f 586 209 599
f 602 588 212
f 593 211 601
f 584 206 596
f 607 595 217
f 590 215 605
f 604 594 214
f 543 284 610
f 539 280 611
f 290 611 621
f 545 281 612
f 537 287 613
f 541 291 614
f 536 278 615
f 544 289 616
f 538 279 617
f 542 282 651
f 540 290 618
f 546 283 619
f 547 285 620
f 286 620 622
f 292 612 281
f 651 619 283
f 294 610 284
f 293 651 282
f 286 615 278
f 611 652 621
f 652 611 280
f 620 295 622
f 295 620 285
f 288 617 279
f 294 619 623
f 305 623 631
f 299 624 629
f 296 625 286
f 306 626 294
f 288 613 627
f 297 627 625
f 292 614 628
f 302 628 630
f 298 629 288
f 291 618 630
f 301 630 621
f 304 631 632
f 300 621 652
f 307 622 295
f 293 612 632
f 303 632 628
f 297 296 633
f 307 633 296
f 308 633 633
f 633 296 633
f 298 644 299
f 308 308 634
f 634 634 308
f 300 634 641
f 306 638 635
f 308 308 635
f 635 635 308
f 633 635 308
f 300 641 301
f 308 308 636
f 636 636 308
f 302 636 637
f 636 308 637
f 308 308 637
f 637 637 308
f 303 637 643
f 305 642 638
f 308 308 638
f 638 638 308
f 635 638 308
f 633 308 639
f 308 308 639
f 639 639 308
f 298 639 644
f 303 643 304
f 308 308 640
f 640 640 308
f 305 640 642
f 634 308 641
f 308 308 641
f 641 641 308
f 636 641 308
f 640 308 642
f 308 308 642
f 642 642 308
f 638 642 308
f 637 308 643
f 308 308 643
f 643 643 308
f 640 643 308
f 639 308 644
f 308 308 644
f 644 644 308
f 634 644 308
f 653 24 645
f 482 483 22
f 478 21 646
f 483 646 477
f 654 15 647
f 478 480 20
f 486 481 16
f 486 17 648
f 487 648 17
f 654 2 484
f 485 19 649
f 479 25 650
f 484 650 608
f 487 18 485
f 482 23 653
f 631 651 293
f 616 624 652
f 624 616 289
f 615 286 625
f 617 288 629
f 628 614 291
f 630 618 290
f 623 619 651
f 610 294 626
f 627 613 287
f 632 612 292
f 443 653 23
f 484 14 654
f 447 654 14
f 650 25 608
f 448 649 19
f 609 647 15
f 446 645 24
f 646 21 477
f 2 3 655
f 509 655 3
f 11 12 656
f 502 656 12
f 657 487 6
f 511 657 6
f 509 3 658
f 4 658 481
f 510 13 659
f 2 659 484
f 660 478 9
f 507 660 9
f 506 10 661
f 11 661 482
f 508 7 662
f 8 662 7
f 507 9 663
f 10 663 483
f 511 6 664
f 7 664 6
f 665 479 13
f 510 665 13
f 505 4 666
f 5 666 4
