mtllib materials.mtl
v 0.07674627 -0.008018017 -0.04890889
v 0.05197823 0.001937985 -0.0391264
v 0.03815956 0.002513707 -0.07165343
v -0.00234044 -0.007486284 -0.09150535
v -0.04734044 -0.007486284 -0.07944763
v -0.08028273 -0.007486284 -0.04650533
v -0.09234044 -0.007486224 -0.001505375
v -0.07850125 -0.007905483 0.05777508
v -0.04555897 -0.007905483 0.09071738
v -0.002340447 -0.007486224 0.08849466
v 0.08394428 -0.007375002 0.05258375
v 0.09466353 -0.008328378 0.00316
v 0.04265953 -0.007486284 -0.07944763
v 0.07865956 0.002513707 -0.001505375
v 0.05523056 0.003997684 0.02537227
v 0.03815957 0.002513766 0.06864268
v -0.04105895 0.002094507 0.08292311
v -0.002340447 0.002513766 0.0794946
v -0.06745154 -0.0007423759 0.05480611
v -0.07310236 0.002406657 0.00156492
v -0.07248849 0.002513707 -0.04200536
v -0.03856138 0.003229678 -0.06553191
v -0.002340432 0.002513707 -0.0825054
v 0.0487779 -0.009276509 0.09235632
v -0.0008850843 0.01290423 -0.0005458593
v -0.01016967 0.01082242 0.009575725
v -0.01398166 0.0108518 0.003607571
v -0.003885534 0.0107047 0.01283854
v 0.003186937 0.01053023 0.01252192
v 0.009152669 0.0103457 0.008710504
v 0.01241316 0.01020056 0.00242573
v 0.01209476 0.01013374 -0.004648507
v 0.008282777 0.01016307 -0.0106166
v 0.001998637 0.01028079 -0.01387948
v -0.00507383 0.01045531 -0.0135628
v -0.01103957 0.01063985 -0.009751439
v -0.01430006 0.01078498 -0.003466666
v -0.02813718 0.002443492 0.02909374
v -0.03928266 0.002529383 0.01164412
v -0.009763595 0.002099276 0.0386337
v 0.0109149 0.00158906 0.03770781
v 0.02835753 0.001049519 0.02656412
v 0.03789058 0.0006252527 0.008188605
v 0.03695963 0.0004297495 -0.01249504
v 0.02581415 0.0005156398 -0.02994472
v 0.007440541 0.0008598566 -0.03948468
v -0.01323799 0.001370072 -0.03855878
v -0.0306806 0.001909673 -0.0274151
v -0.04021366 0.002333999 -0.009039581
v -0.02473058 -0.006254077 0.02522916
v -0.03438285 -0.00617969 0.01011735
v -0.008818578 -0.00655216 0.03349102
v 0.009089541 -0.006994009 0.03268915
v 0.02419532 -0.00746125 0.02303845
v 0.0323098 -0.007276773 0.006764114
v 0.02127636 -0.005007446 -0.02520621
v 0.006080668 -0.00762552 -0.03416145
v -0.01182745 -0.007183671 -0.03335959
v -0.02693322 -0.006716371 -0.02370888
v -0.03518908 -0.006348908 -0.007795215
v -0.001861013 -0.00684315 0.004770517
vn 0.3280171 0.9366596 -0.1227751
vn -1.528548E-14 -1 1.748456E-07
vn 0.5890793 0.6852525 -0.4282694
vn 0.2356785 0.9597998 0.1524462
vn 0.2535563 0.9581488 0.1328916
vn 0.06447789 0.59526 0.800942
vn -0.4470963 0.8289657 0.336037
vn -0.4677191 0.8780214 0.101574
vn -0.7865946 0.6173957 -0.00956556
vn -0.3233474 0.837337 -0.4408099
vn -0.3177287 0.6342983 -0.7047794
vn 0.1546419 0.8018774 -0.5771294
vn -0.005350818 0.9997863 0.0199695
vn 0.2621601 0.9514018 0.1615759
vn 0.06984634 0.962898 0.2606705
vn -0.02935134 -0.9968549 -0.07361106
vn 0.03172172 0.6686311 0.7429174
vn -0.07729518 0.6669662 0.7410678
vn -0.5336471 0.6560808 0.5336468
vn -0.5154805 0.8475373 0.1263344
vn -0.439215 0.89064 -0.1176886
vn -0.569375 0.6626939 -0.4864658
vn -0.1458214 0.8261772 -0.5442126
vn 0.1474748 0.661648 -0.7351688
vn 0.4394452 0.6668385 -0.6018425
vn 0.3333348 0.9364725 -0.1091208
vn 0.5651639 0.8246796 -0.02221121
vn -0.1882051 0.9790369 0.0778819
vn 0.05248174 0.9972419 -0.0524822
vn 1.528548E-14 1 -1.748456E-07
vn 1.528548E-14 1 -1.748456E-07
vn 1.528548E-14 1 -1.748456E-07
vn 1.528548E-14 1 -1.748456E-07
vn 0.002074681 0.9999933 0.003019579
vn 0.001430142 0.9999959 0.002476909
vn 0.1027122 0.978673 0.1779033
vn 0.02419349 0.9996518 -0.01053223
vn 0.02419349 0.9996518 -0.01053223
vn 0.02419349 0.9996518 -0.01053223
vn 0.02419349 0.9996518 -0.01053223
vn 0.02419349 0.9996518 -0.01053223
vn 0.02419349 0.9996518 -0.01053223
vn 0.02419349 0.9996518 -0.01053223
vn 0.02419349 0.9996518 -0.01053223
vn 0.02419349 0.9996518 -0.01053223
vn 0.02419349 0.9996518 -0.01053223
vn 0.02419349 0.9996518 -0.01053223
vn 0.02419349 0.9996518 -0.01053223
vn -0.2587849 0.9508627 0.1699725
vn -0.1310952 0.9490025 0.2867199
vn 0.03783084 0.945307 0.323981
vn 0.2027292 0.9407661 0.2717721
vn 0.3194162 0.9365968 0.1440825
vn 0.3566268 0.9339157 -0.02487663
vn 0.3043892 0.9334418 -0.1898253
vn 0.1766993 0.9353021 -0.3065737
vn 0.007772802 0.9389976 -0.3438357
vn -0.1571238 0.9435388 -0.2916272
vn -0.2738132 0.9477085 -0.1639359
vn -0.3110234 0.950389 0.005021949
vn -0.7336264 -0.4944665 0.4661495
vn -0.4066237 -0.4992331 0.7651297
vn 0.02598082 -0.5086994 0.8605521
vn 0.4482713 -0.5203296 0.7268493
vn 0.7191237 -0.5775362 0.3864102
vn 0.8190861 -0.5728078 -0.03145332
vn 0.5497847 -0.7561717 -0.3548819
vn 0.3816077 -0.5343235 -0.7542374
vn -0.05099442 -0.524857 -0.8496615
vn -0.4732881 -0.5132235 -0.7159609
vn -0.7721131 -0.5025444 -0.388961
vn -0.8674057 -0.4956768 0.04372575
vn -0.01919009 -0.9997889 0.007335736
vn -0.02130683 -0.9997606 0.004968788
vn -0.02447801 -0.9996916 0.004199803
vn -0.02748416 -0.9996077 0.005379358
vn -0.01168597 -0.9997844 -0.01716023
vn 0.009763685 -0.9291955 -0.3694594
vn 0.235085 -0.964237 0.1224015
vn 0.1416127 -0.9887207 0.04875607
vn -0.02398335 -0.9995968 0.01519494
vn -0.02161072 -0.9996602 0.01457531
vn -0.01968011 -0.9997234 0.01287533
vn -0.01870466 -0.9997721 0.01028629
vn 0.4199144 -0.764549 -0.4890161
usemtl mat21
f 3//1 2//1 1//1
f 13//2 1//2 12//2 11//2 10//2 9//2 8//2 7//2 6//2 5//2 4//2
f 2//3 14//3 12//3
f 14//4 15//4 11//4
f 15//5 16//5 11//5
f 18//6 17//6 9//6
f 17//7 19//7 8//7
f 19//8 20//8 7//8
f 20//9 21//9 6//9
f 21//10 22//10 5//10
f 22//11 23//11 4//11
f 23//12 3//12 13//12
f 2//13 3//13 23//13
f 16//14 24//14 11//14
f 18//15 24//15 16//15
f 11//16 24//16 10//16
f 10//17 18//17 9//17
f 24//18 18//18 10//18
f 8//19 9//19 17//19
f 7//20 8//20 19//20
f 6//21 7//21 20//21
f 5//22 6//22 21//22
f 4//23 5//23 22//23
f 13//24 4//24 23//24
f 1//25 13//25 3//25
f 12//26 1//26 2//26
f 11//27 12//27 14//27
f 20//28 19//28 17//28
f 14//29 2//29 23//29
f 15//30 14//30 23//30
f 16//31 15//31 23//31
f 18//32 16//32 23//32
f 17//33 18//33 23//33
f 20//34 17//34 23//34
f 21//35 20//35 23//35
f 22//36 21//36 23//36
usemtl mat12
f 27//37 26//37 25//37
f 26//38 28//38 25//38
f 28//39 29//39 25//39
f 29//40 30//40 25//40
f 30//41 31//41 25//41
f 31//42 32//42 25//42
f 32//43 33//43 25//43
f 33//44 34//44 25//44
f 34//45 35//45 25//45
f 35//46 36//46 25//46
f 36//47 37//47 25//47
f 37//48 27//48 25//48
f 27//49 39//49 38//49 26//49
f 26//50 38//50 40//50 28//50
f 28//51 40//51 41//51 29//51
f 29//52 41//52 42//52 30//52
f 30//53 42//53 43//53 31//53
f 31//54 43//54 44//54 32//54
f 32//55 44//55 45//55 33//55
f 33//56 45//56 46//56 34//56
f 34//57 46//57 47//57 35//57
f 35//58 47//58 48//58 36//58
f 37//59 36//59 48//59 49//59
f 37//60 49//60 39//60 27//60
f 51//61 50//61 38//61 39//61
f 50//62 52//62 40//62 38//62
f 52//63 53//63 41//63 40//63
f 53//64 54//64 42//64 41//64
f 54//65 55//65 43//65 42//65
f 55//66 44//66 43//66
f 56//67 45//67 44//67
f 57//68 46//68 45//68
f 57//69 58//69 47//69 46//69
f 58//70 59//70 48//70 47//70
f 60//71 49//71 48//71 59//71
f 60//72 51//72 39//72 49//72
f 61//73 50//73 51//73
f 61//74 52//74 50//74
f 61//75 53//75 52//75
f 61//76 54//76 53//76
f 61//77 55//77 54//77
f 61//78 44//78 55//78
f 61//79 56//79 44//79
f 61//80 57//80 56//80
f 61//81 58//81 57//81
f 61//82 59//82 58//82
f 61//83 60//83 59//83
f 61//84 51//84 60//84
f 45//85 56//85 57//85
