mtllib materials.mtl
v 0.003708303 0.08813179 -0.01122937
v -0.008812726 0.08372712 -0.004466981
v -0.01017785 0.08274019 -0.01134548
v -0.004159272 0.08433425 0.0008365512
v 0.002535582 0.08439887 0.003144056
v 0.009478092 0.08390367 0.001837343
v 0.01480788 0.08298147 -0.002733588
v 0.01709694 0.08187914 -0.009343833
v 0.01573181 0.08089221 -0.01622233
v 0.01107842 0.08028519 -0.02152586
v 0.004383504 0.08022046 -0.02383336
v -0.002559006 0.08071566 -0.02252665
v -0.007888794 0.08163798 -0.01795572
v -0.01922101 0.07679212 -0.0003040731
v -0.02194369 0.07490623 -0.01319462
v -0.0103575 0.07789636 0.00956279
v 0.002271891 0.07792318 0.01376212
v 0.01528311 0.0768652 0.01116872
v 0.02518976 0.07500613 0.002477497
v 0.02933747 0.07284391 -0.009982765
v 0.02661473 0.07095802 -0.02287334
v 0.01775122 0.06985378 -0.03274018
v 0.005121887 0.06982696 -0.03693952
v -0.00788933 0.07088494 -0.03434612
v -0.01779604 0.07274413 -0.02565488
v -0.0284642 0.0521487 0.007639766
v -0.03213251 0.04960787 -0.009727657
v -0.01652241 0.05363643 0.02093336
v 0.0004931092 0.05367243 0.02659109
v 0.01802301 0.05224717 0.02309701
v 0.03137028 0.04974234 0.01138735
v 0.0369584 0.04682922 -0.00540033
v 0.03329015 0.0442884 -0.02276772
v 0.02134836 0.04280066 -0.0360613
v 0.00433284 0.04276454 -0.04171905
v -0.01319712 0.04418993 -0.03822497
v -0.02654433 0.04669476 -0.02651529
v -0.03427422 0.02121532 0.01466212
v -0.03844559 0.01832592 -0.005087376
v -0.02069449 0.02290714 0.02977902
v -0.001345158 0.02294803 0.03621277
v 0.01858914 0.02132726 0.03223947
v 0.03376704 0.01847887 0.0189237
v 0.02630377 0.0136025 -0.01454249
v 0.03016442 0.01600909 0.002030581
v 0.02382606 0.02820158 -0.02530187
v 0.01074666 0.02742207 -0.03444368
v 0.01838887 0.02765191 -0.03161529
v -0.01691312 0.01216495 -0.03749333
v -0.03209102 0.01501334 -0.02417758
v -0.03595024 -0.01227701 0.019916
v -0.04012167 -0.01516628 0.0001665056
v -0.02237052 -0.01058519 0.0350329
v -0.00302124 -0.01054418 0.04146665
v 0.01691312 -0.01216507 0.03749335
v 0.03209102 -0.01501334 0.02417761
v 0.02848834 -0.01748312 0.007284462
v 0.02462775 -0.01988971 -0.009288609
v 0.02086657 0.0130527 -0.02085587
v 0.01927328 -0.02039158 -0.01529047
v 0.01542938 0.01250303 -0.02716924
v 0.007787228 0.01227331 -0.02999765
v 0.006193876 -0.02117109 -0.02443224
v 0.01391882 -0.02089334 -0.0212923
v 0.0001450181 0.01204348 -0.03282607
v -0.01858914 -0.02132726 -0.03223944
v -0.001531065 -0.02144873 -0.02757217
v -0.03376704 -0.01847899 -0.0189237
v -0.03329015 -0.0442884 0.02276772
v -0.0369584 -0.04682922 0.00540033
v -0.02134836 -0.04280066 0.03606132
v -0.00433284 -0.04276466 0.04171905
v 0.01319712 -0.04419005 0.03822497
v 0.02654433 -0.04669476 0.02651531
v 0.03213251 -0.04960787 0.009727657
v 0.0284642 -0.0521487 -0.007639766
v 0.02057505 -0.03676319 -0.015111
v 0.01652241 -0.05363643 -0.02093333
v 0.007495642 -0.03754258 -0.02425274
v 0.01522064 -0.03726494 -0.0211128
v -0.01802301 -0.05224717 -0.02309701
v -0.0004931092 -0.05367255 -0.02659108
v -0.03137028 -0.04974234 -0.01138732
v -0.02661479 -0.07095802 0.02287334
v -0.02933747 -0.07284391 0.009982765
v -0.004830718 -0.06356955 0.03243586
v -0.0172379 -0.06441462 0.02769431
v 0.008321881 -0.06378376 0.03041086
v 0.01779604 -0.07274413 0.02565488
v 0.02194369 -0.07490635 0.01319462
v 0.01922101 -0.07679224 0.0003040731
v 0.0103575 -0.07789648 -0.00956279
v -0.002271891 -0.07792318 -0.01376212
v -0.01528311 -0.07686532 -0.01116872
v -0.02518976 -0.07500613 -0.002477467
v -0.0144338 -0.08352649 0.01528865
v -0.0155158 -0.08462334 0.008376569
v -0.009997547 -0.08263361 0.02073595
v -0.003395796 -0.08218408 0.02325886
v 0.003602564 -0.08229792 0.02218139
v 0.01168436 -0.08395183 0.01126745
v 0.009122193 -0.08294499 0.01779222
v 0.01060224 -0.08504856 0.004355371
v 0.006165981 -0.08594131 -0.001091897
v -0.0004357696 -0.08639109 -0.003614843
v -0.00743407 -0.08627713 -0.00253737
v -0.01295376 -0.08563006 0.001851797
v -0.0018695 -0.09010983 0.01073861
vn -0.3608019 0.9305851 -0.06191513
vn -0.2680407 0.9551535 0.1258416
vn -0.09312481 0.965507 0.2431542
vn 0.1170639 0.9588704 0.25858
vn 0.3062058 0.9370255 0.1679919
vn 0.4236413 0.9058196 -0.004352379
vn 0.4378816 0.8736185 -0.2122511
vn 0.3451256 0.8490527 -0.3999974
vn 0.1701931 0.838698 -0.5173201
vn -0.03997651 0.8453326 -0.5327427
vn -0.229131 0.8671809 -0.4421496
vn -0.3465614 0.8983856 -0.2698117
vn -0.5547764 0.8319765 -0.006185702
vn -0.4450741 0.8432338 0.3014396
vn -0.1743 0.8448699 0.5057811
vn 0.1669546 0.8372121 0.5207705
vn 0.4515544 0.8222874 0.3463266
vn 0.5917732 0.8037045 0.06215774
vn 0.5719742 0.7866078 -0.2325806
vn 0.425226 0.7756769 -0.4663778
vn 0.1989497 0.7735293 -0.6017238
vn -0.0608423 0.7805554 -0.6221185
vn -0.3089321 0.7952271 -0.5217039
vn -0.4935675 0.8141178 -0.3059467
vn -0.9123415 0.3861072 0.1362141
vn -0.6909443 0.4432446 0.5710781
vn -0.2802434 0.4648564 0.8398644
vn 0.2097139 0.4451517 0.8705516
vn 0.6476441 0.3894103 0.6549174
vn 0.9162043 0.3125682 0.2507403
vn 0.9434338 0.2352152 -0.2336803
vn 0.7220365 0.1780778 -0.6685444
vn 0.3113358 0.1564661 -0.9373305
vn -0.1786215 0.1761708 -0.9680177
vn -0.6165518 0.231912 -0.7523835
vn -0.885112 0.3087542 -0.3482063
vn -0.9606079 0.2192047 0.1708265
vn -0.7297257 0.27879 0.6243209
vn -0.3014295 0.3013276 0.9046226
vn 0.2095186 0.2807787 0.9366244
vn 0.6662107 0.2226493 0.7117519
vn 0.9462764 0.1425152 0.2902592
vn 0.9506887 -0.257141 -0.1734059
vn 0.7207551 -0.3278147 -0.6107779
vn 0.3368177 -0.3251448 -0.8836486
vn -0.195454 0.0002741751 -0.9807128
vn -0.652146 0.05840352 -0.7558403
vn -0.9322119 0.1385377 -0.3343475
vn -0.9776055 0.07948847 0.1948569
vn -0.7443454 0.1396874 0.6530217
vn -0.3116385 0.1624571 0.93621
vn 0.2045716 0.1416966 0.9685414
vn 0.6659669 0.08296865 0.7413531
vn 0.977206 -0.07976463 -0.1967386
vn 0.9731909 -0.082387 -0.2147369
vn 0.7505202 -0.141013 -0.6456275
vn 0.361517 -0.1736066 -0.9160602
vn 0.2593347 -0.1623248 -0.9520485
vn -0.665967 -0.08296873 -0.741353
vn -0.948917 -0.002009309 -0.3155196
vn -0.9746725 -0.06184814 0.2149148
vn -0.7437901 -0.002262905 0.6684094
vn -0.3154941 0.02027478 0.9487109
vn 0.1954539 -0.0002741168 0.9807129
vn 0.652146 -0.05840353 0.7558404
vn 0.9322119 -0.1385377 0.3343477
vn 0.968459 0.09796159 -0.2291088
vn 0.739848 0.05371035 -0.6706268
vn 0.3758672 0.01972924 -0.9264635
vn -0.2095186 -0.2807787 -0.9366245
vn -0.6662107 -0.2226492 -0.7117519
vn -0.9462764 -0.1425151 -0.2902592
vn -0.9434339 -0.2352152 0.2336802
vn -0.7220366 -0.1780777 0.6685443
vn -0.2967362 -0.3882933 0.872454
vn 0.1412865 -0.4017159 0.9047997
vn 0.6165519 -0.2319121 0.7523833
vn 0.885112 -0.3087541 0.3482064
vn 0.9123415 -0.3861072 -0.1362144
vn 0.6909441 -0.4432446 -0.5710784
vn 0.2802435 -0.4648564 -0.8398644
vn -0.209714 -0.4451517 -0.8705516
vn -0.6476441 -0.3894103 -0.6549174
vn -0.9162045 -0.3125682 -0.2507402
vn -0.6198934 -0.7496033 0.2320069
vn -0.456713 -0.7403213 0.4932927
vn -0.2940821 -0.4407744 0.8480765
vn 0.1305142 -0.4302923 0.8932046
vn 0.05959958 -0.4181021 0.9064428
vn 0.5835515 -0.7419611 0.3300932
vn 0.6744185 -0.7381198 -0.0184078
vn 0.5565044 -0.7349668 -0.3874621
vn 0.2377196 -0.7414296 -0.6275122
vn -0.1608552 -0.7549019 -0.6358056
vn -0.4857213 -0.762912 -0.4266617
vn -0.6425971 -0.7596088 -0.1003164
vn -0.3953778 -0.8955769 0.2040061
vn -0.310325 -0.8649106 0.3944973
vn -0.1402154 -0.8442224 0.517328
vn 0.06943 -0.8390477 0.5396095
vn 0.2623584 -0.8507758 0.4553556
vn 0.3869143 -0.8762653 0.2871525
vn 0.4097273 -0.9086903 0.08003493
vn 0.3246726 -0.9393542 -0.11046
vn 0.1545633 -0.9600443 -0.2332921
vn -0.05506719 -0.9652203 -0.2555729
vn -0.2480053 -0.9534904 -0.1713169
vn -0.3725643 -0.9280012 -0.003108526
vn 0.7315586 -0.3196582 -0.6021966
vn 0.2497201 -0.3005052 -0.9205089
vn 0.2637149 -0.02086695 -0.964375
vn 0.7430506 0.05176875 -0.6672299
vn 0.9536628 -0.2504337 -0.1667642
vn 0.9708652 0.09334765 -0.2206965
vn 0.3615845 -0.7422923 0.5641443
vn 0.09262352 -0.3886405 0.9167222
vn -0.1942578 -0.3860386 0.9017972
vn -0.1735115 -0.4108046 0.8950605
vn 0.3012856 -0.3028074 -0.9041763
vn 0.3155017 -0.01872217 -0.9487404
vn 0.7502337 -0.1452581 -0.6450191
vn 0.3617742 -0.1659506 -0.9173766
vn 0.7315588 -0.3196554 -0.6021978
vn 0.3368188 -0.3251433 -0.8836487
vn 0.7430516 0.05176907 -0.6672289
vn 0.3758663 0.01973078 -0.9264638
vt -0.02288309 -0.04842172
vt -0.02313152 -0.04989051
vt -0.02242521 -0.04983926
vt 0.01227953 -0.05382682
vt 0.01141236 -0.05503805
vt 0.01206965 -0.05530162
vt 0.04157539 -0.0715305
vt 0.0402717 -0.0722512
vt 0.04075181 -0.07277177
vt 0.05954593 -0.09499221
vt 0.05805933 -0.09508759
vt 0.05827137 -0.09576327
vt 0.06218794 -0.119091
vt 0.06081999 -0.1185012
vt 0.06070225 -0.1191996
vt 0.04223398 -0.1416743
vt 0.04139554 -0.140443
vt 0.04092171 -0.1409693
vt -0.007552158 -0.1535586
vt -0.0073782 -0.1520792
vt -0.008081029 -0.152166
vt -0.06254573 -0.1401545
vt -0.061411 -0.1391894
vt -0.06198489 -0.1387745
vt -0.08961699 -0.1164644
vt -0.08813379 -0.116326
vt -0.08836531 -0.1156568
vt -0.09275486 -0.09490622
vt -0.09138273 -0.09548616
vt -0.09126998 -0.09478702
vt -0.08043664 -0.07457633
vt -0.07944824 -0.07569084
vt -0.07904528 -0.07510848
vt -0.05601386 -0.05702525
vt -0.05559642 -0.05845522
vt -0.05498328 -0.05810087
vt -0.02462513 -0.01259193
vt -0.02533146 -0.01264299
vt -0.02534354 -0.0139611
vt -0.02401507 -0.01388037
vt 0.02983482 -0.0135161
vt 0.02917732 -0.01325305
vt 0.02854144 -0.01432811
vt 0.02977295 -0.01483281
vt 0.07610086 -0.04043492
vt 0.07560287 -0.03993146
vt 0.07452567 -0.04055361
vt 0.07545646 -0.0415049
vt 0.1022757 -0.07463939
vt 0.101987 -0.07399277
vt 0.1006853 -0.07408531
vt 0.1012233 -0.07530262
vt 0.10751 -0.1044325
vt 0.1074849 -0.1037248
vt 0.1061684 -0.1032223
vt 0.1062106 -0.1045526
vt 0.08206879 -0.1370709
vt 0.08242208 -0.1364572
vt 0.08150502 -0.1352416
vt 0.08083449 -0.1363913
vt -0.003009938 -0.1620834
vt -0.002309579 -0.1619786
vt -0.001964906 -0.1603991
vt -0.003282733 -0.1605853
vt -0.08299432 -0.1367549
vt -0.08247127 -0.1372323
vt -0.0810322 -0.1363838
vt -0.08200547 -0.135476
vt -0.1076157 -0.1086057
vt -0.1074497 -0.1092942
vt -0.1057755 -0.1092677
vt -0.1060708 -0.1079699
vt -0.1080586 -0.08665116
vt -0.1082133 -0.08734223
vt -0.1066937 -0.08792396
vt -0.1063844 -0.08662948
vt -0.09519703 -0.06249269
vt -0.09561775 -0.06306234
vt -0.09446417 -0.06407948
vt -0.0936579 -0.06302057
vt -0.06834485 -0.03471368
vt -0.06896088 -0.03506297
vt -0.06833363 -0.03634313
vt -0.06716698 -0.03570259
vt -0.03118376 0.08236653
vt -0.03251048 0.08226083
vt -0.0325233 0.07951161
vt -0.03073581 0.07965401
vt 0.06913991 0.06016145
vt 0.06795847 0.0607743
vt 0.06649186 0.0584489
vt 0.0680836 0.05762322
vt 0.1261551 0.001131734
vt 0.1252701 0.002125774
vt 0.1230703 0.0004766956
vt 0.1242627 -0.0008625623
vt 0.1516916 -0.03905533
vt 0.1510192 -0.03790675
vt 0.1485383 -0.03909137
vt 0.1494442 -0.04063884
vt 0.1633139 -0.04265005
vt 0.162746 -0.04144635
vt 0.1601698 -0.04240618
vt 0.1609349 -0.04402792
vt 0.1643775 0.0006524596
vt 0.1637467 0.001824392
vt 0.1612249 0.0007294345
vt 0.1620748 -0.0008495065
vt 0.06653851 0.1408862
vt 0.06525737 0.1412469
vt 0.06429261 0.1386724
vt 0.06601869 0.1381866
vt -0.1464233 0.05487467
vt -0.1471381 0.05375194
vt -0.1449512 0.05208581
vt -0.1439882 0.05359846
vt -0.1643564 -0.01361577
vt -0.1649181 -0.01482234
vt -0.1625321 -0.01618812
vt -0.1617753 -0.0145625
vt -0.1636271 -0.03537748
vt -0.1642608 -0.0365479
vt -0.1619617 -0.03805538
vt -0.161108 -0.03647849
vt -0.1514756 -0.01754953
vt -0.1522934 -0.01859956
vt -0.1502741 -0.02046524
vt -0.1491723 -0.01905055
vt -0.1152328 0.03435493
vt -0.1163336 0.03360694
vt -0.1149851 0.0312111
vt -0.113502 0.03221886
vt -0.03435042 0.1035572
vt -0.03613539 0.1033861
vt -0.03595034 0.1001666
vt -0.03392055 0.1003611
vt 0.08469041 0.07316568
vt 0.08316218 0.07410373
vt 0.08137162 0.0714217
vt 0.08310945 0.07035498
vt 0.1387384 0.004612568
vt 0.1376156 0.006010692
vt 0.135026 0.004088824
vt 0.1363028 0.002498939
vt 0.1583471 -0.03419466
vt 0.1574274 -0.03265535
vt 0.154598 -0.03420266
vt 0.1556439 -0.03595309
vt 0.1640725 -0.02995995
vt 0.1631697 -0.02841059
vt 0.1603235 -0.0299266
vt 0.16135 -0.03168847
vt 0.1523238 0.02633704
vt 0.1511729 0.02771213
vt 0.1499316 0.0241745
vt 0.03297103 0.1002504
vt 0.03118371 0.1003938
vt 0.03114224 0.09714132
vt 0.03285575 0.09701024
vt -0.07860775 0.07141347
vt -0.08015837 0.07051292
vt -0.0786143 0.06952994
vt -0.07707024 0.06854696
vt -0.1339747 0.01076751
vt -0.1333538 0.008998442
vt -0.1328395 0.009631018
vt -0.1631443 -0.03139258
vt -0.1640412 -0.03294534
vt -0.1613122 -0.03466354
vt -0.1575363 -0.01789502
vt -0.1585856 -0.01934915
vt -0.1560443 -0.02133444
vt -0.1548512 -0.01968086
vt -0.1279029 0.03921237
vt -0.1293071 0.0380972
vt -0.1273993 0.03549722
vt -0.1258025 0.03676534
vt -0.038133 0.1168699
vt -0.04015808 0.1166312
vt -0.03976074 0.1132602
vt -0.03773566 0.1134989
vt 0.09906038 0.0766311
vt 0.09742147 0.07784431
vt 0.09540193 0.07511614
vt 0.09704084 0.07390292
vt 0.1465533 0.002192108
vt 0.1453681 0.003851396
vt 0.142606 0.001878508
vt 0.1437912 0.000219218
vt 0.1601492 -0.03366623
vt 0.1591084 -0.03191278
vt 0.1561896 -0.03364537
vt 0.1572304 -0.03539882
vt 0.1604009 -0.02438485
vt 0.159279 -0.02268207
vt 0.1564446 -0.02454945
vt 0.1575664 -0.02625223
vt 0.04132907 0.1165828
vt 0.03959554 0.1167815
vt 0.0392091 0.1134092
vt 0.04094263 0.1132106
vt 0.03395611 0.1181216
vt 0.03224341 0.1182641
vt 0.031962 0.1148814
vt 0.03367469 0.114739
vt -0.09581348 0.07916921
vt -0.09649961 0.07869337
vt -0.09448659 0.0759606
vt -0.09382391 0.07641913
vt -0.142322 0.009725337
vt -0.1427979 0.009063629
vt -0.1400724 0.007040781
vt -0.139585 0.007717803
vt -0.1487879 -0.00341811
vt -0.1497922 -0.004873852
vt -0.1469982 -0.006801344
vt -0.1459939 -0.005345607
vt -0.159279 -0.02268207
vt -0.1604009 -0.02438485
vt -0.1575664 -0.02625223
vt -0.1564446 -0.02454945
vt -0.1377575 0.03568585
vt -0.13924 0.03428578
vt -0.1369094 0.03181802
vt -0.1354269 0.03321808
vt -0.04440958 0.1267453
vt -0.04642395 0.1264286
vt -0.04580209 0.1232643
vt -0.04403069 0.1235428
vt 0.1157084 0.07170911
vt 0.1142351 0.07311884
vt 0.1120962 0.07070553
vt 0.1133917 0.06946583
vt 0.1521977 -0.004748356
vt 0.1511347 -0.003008286
vt 0.1484489 -0.004793199
vt 0.1493837 -0.006323391
vt 0.1593414 -0.03580183
vt 0.1583215 -0.03403609
vt 0.1555926 -0.03575428
vt 0.1564894 -0.03730705
vt 0.1541986 -0.02266615
vt 0.1530055 -0.02101257
vt 0.1504643 -0.02299786
vt 0.1515135 -0.024452
vt 0.125984 0.03371494
vt 0.1224794 0.03238308
vt 0.1238836 0.03126792
vt 0.04463429 0.1293567
vt 0.04293484 0.129612
vt 0.04224807 0.1264326
vt 0.04402221 0.1261727
vt -0.1209833 0.06841312
vt -0.1203652 0.06669026
vt -0.119747 0.06496741
vt -0.1185266 0.06628115
vt -0.1505837 0.0004387567
vt -0.150996 -0.0002866042
vt -0.1514083 -0.001011958
vt -0.1495335 -0.001034091
vt -0.1491213 -0.0003087313
vt -0.1536901 -0.03712045
vt -0.1508608 -0.03866775
vt -0.149941 -0.03712845
vt -0.158357 -0.03107235
vt -0.1593835 -0.03283421
vt -0.1565373 -0.03435022
vt -0.1556346 -0.03280086
vt -0.1468775 0.0242775
vt -0.1481862 0.02271381
vt -0.1456361 0.02073988
vt -0.1444853 0.02211497
vt -0.06235003 0.1317711
vt -0.06407611 0.1312852
vt -0.06311134 0.1287108
vt -0.0618302 0.1290714
vt 0.1389031 0.04823572
vt 0.1379402 0.04974838
vt 0.136468 0.04695952
vt 0.1549431 -0.04749912
vt 0.1545136 -0.0457582
vt 0.1524091 -0.04663187
vt 0.1526317 -0.04794399
vt 0.1481924 -0.0530146
vt 0.1474328 -0.0513903
vt 0.145549 -0.05245727
vt 0.1460198 -0.05370207
vt 0.1446177 -0.02487066
vt 0.1435159 -0.02345597
vt 0.1414966 -0.02532164
vt 0.1109558 0.02528094
vt 0.1094726 0.0262887
vt 0.1081242 0.02389286
vt 0.109225 0.02314487
vt 0.0319539 0.07236473
vt 0.03016641 0.07250714
vt 0.03017924 0.0697579
vt 0.03150595 0.06965221
vt -0.06319059 0.05208464
vt -0.06478233 0.05125896
vt -0.06331571 0.04893356
vt -0.06213428 0.04954641
vt -0.1177156 -0.004290768
vt -0.1189079 -0.005630033
vt -0.1167082 -0.007279105
vt -0.1158232 -0.006285071
vt -0.142351 -0.04271356
vt -0.143257 -0.04426103
vt -0.140776 -0.04544565
vt -0.1401036 -0.04429708
vt -0.1536856 -0.04546515
vt -0.1544506 -0.04708689
vt -0.1518744 -0.04804673
vt -0.1513065 -0.04684303
vt -0.1549118 -0.002668706
vt -0.1557618 -0.004247644
vt -0.15324 -0.005342602
vt -0.1526091 -0.004170672
vt -0.002704475 -0.1581631
vt -0.00139315 -0.1583904
vt -0.001741393 -0.1565149
vt -0.002432412 -0.1563604
vt 0.08839127 -0.1299308
vt 0.0876276 -0.1280369
vt 0.08710871 -0.1285188
vt 0.1501095 -0.05585269
vt 0.1499567 -0.05453058
vt 0.1479491 -0.05507609
vt 0.1480305 -0.05577957
vt 0.14452 -0.05577485
vt 0.1440611 -0.05452553
vt 0.1422378 -0.05552701
vt 0.1424819 -0.05619176
vt 0.1460574 -0.0546071
vt 0.1448171 -0.05398401
vt 0.1442486 -0.05563471
vt 0.07469025 -0.02659401
vt 0.07352512 -0.02595077
vt 0.07285081 -0.02715622
vt 0.07345182 -0.02753068
vt 0.0286201 0.004253704
vt 0.0272923 0.004342321
vt 0.02730718 0.00308217
vt 0.02801174 0.003013803
vt -0.03390941 0.00607242
vt -0.03513668 0.005558342
vt -0.03441015 0.004552506
vt -0.03375584 0.004821757
vt -0.08407153 -0.02728422
vt -0.08500346 -0.02823379
vt -0.08377399 -0.02875111
vt -0.08328295 -0.02824201
vt -0.1091357 -0.0651831
vt -0.1097214 -0.06637769
vt -0.1082229 -0.0663626
vt -0.1079169 -0.06572498
vt -0.114875 -0.09315215
vt -0.1150263 -0.09447408
vt -0.113461 -0.09387222
vt -0.1133765 -0.09316982
vt -0.09450497 -0.1241826
vt -0.09396783 -0.1254002
vt -0.09276868 -0.1240271
vt -0.09303675 -0.123372
vt 0.008194228 -0.1443788
vt 0.008893126 -0.144493
vt 0.008777048 -0.1430079
vt 0.05696838 -0.1335256
vt 0.0575658 -0.1331454
vt 0.05649015 -0.1321148
vt 0.08320241 -0.1126821
vt 0.08347262 -0.1120275
vt 0.08200003 -0.1118027
vt 0.08798863 -0.0929024
vt 0.08791207 -0.09219838
vt 0.08651188 -0.09270685
vt 0.07838421 -0.07375114
vt 0.07800777 -0.07315131
vt 0.07697041 -0.07422039
vt 0.05727256 -0.05654684
vt 0.0566732 -0.05616964
vt 0.05620218 -0.05758287
vt 0.02744323 -0.04727681
vt 0.02673868 -0.04720526
vt 0.02694476 -0.04868059
vt -0.005000927 -0.05144957
vt -0.005663018 -0.05170084
vt -0.004818567 -0.05292802
vt -0.03235423 -0.06799112
vt -0.03283929 -0.06850708
vt -0.03154252 -0.0692402
vt -0.04919776 -0.09051689
vt -0.0494122 -0.09119181
vt -0.04792596 -0.09129252
vt -0.05188145 -0.1134281
vt -0.05176575 -0.1141267
vt -0.05039609 -0.113541
vt -0.0345485 -0.1338907
vt -0.03408154 -0.1344231
vt -0.03322718 -0.1332028
vt -0.07851346 0.07282537
vt -0.07771166 0.07143354
vt -0.07697703 0.0718305
vt -0.1411122 -0.00396837
vt -0.1400353 -0.002565484
vt -0.142501 -0.0004859875
vt -0.1498914 -0.01189356
vt -0.1527326 -0.01036655
vt -0.1536405 -0.01188427
vt -0.1200514 0.06950738
vt -0.1206165 0.06893282
vt -0.1211816 0.06835826
vt -0.120012 0.06720509
vt -0.1194469 0.06777965
vt 0.03502034 0.1005706
vt 0.03487344 0.09733164
vt 0.03661134 0.09717584
vt 0.0493257 0.1276264
vt 0.04760433 0.1279118
vt 0.04693355 0.1247397
vt 0.09876041 -0.05783414
vt 0.097532 -0.05878395
vt 0.09792989 -0.05936977
vt 0.1458523 -0.05157148
vt 0.1470979 -0.0521841
vt 0.1489699 -0.05109651
vt 0.1540069 -0.0510026
vt 0.1516866 -0.05139918
vt 0.1512691 -0.05256772
vt 0.1498874 -0.0560163
vt 0.1503319 -0.05485776
vt 0.1482526 -0.05479245
vt -0.1382459 0.00659358
vt -0.1393694 0.005196048
vt -0.1369344 0.003080669
vt -0.1375901 0.004837122
vt -0.151455 -0.005331138
vt -0.1486389 -0.006904103
vt -0.1477055 -0.005373091
vt -0.1495802 -0.005352117
vt -0.0960068 0.07860702
vt -0.09669437 0.07813327
vt -0.094666 0.07541168
vt -0.09400196 0.07586824
vt -0.1433315 0.008878881
vt -0.143805 0.008215421
vt -0.1410832 0.006187466
vt -0.1405984 0.006866386
vt -0.07771201 0.07143371
vt -0.07691019 0.07004186
vt -0.07617558 0.07043882
vt -0.07544097 0.0708358
vt -0.07697739 0.07183068
vt -0.1333538 0.008998582
vt -0.1327329 0.007229516
vt -0.1322187 0.007862092
vt -0.1317045 0.008494656
vt -0.1328396 0.009631159
vt -0.1200119 0.06720535
vt -0.1188424 0.0660522
vt -0.1194468 0.06777991
vt -0.1495336 -0.00103431
vt -0.1476589 -0.001056435
vt -0.1491214 -0.0003089497
o group127060515
g mesh127060515
usemtl mat20
f 3/3/1 2/2/1 1/1/1
f 2/6/2 4/5/2 1/4/2
f 4/9/3 5/8/3 1/7/3
f 5/12/4 6/11/4 1/10/4
f 6/15/5 7/14/5 1/13/5
f 7/18/6 8/17/6 1/16/6
f 8/21/7 9/20/7 1/19/7
f 9/24/8 10/23/8 1/22/8
f 10/27/9 11/26/9 1/25/9
f 11/30/10 12/29/10 1/28/10
f 12/33/11 13/32/11 1/31/11
f 13/36/12 3/35/12 1/34/12
f 15/40/13 14/39/13 2/38/13 3/37/13
f 14/44/14 16/43/14 4/42/14 2/41/14
f 16/48/15 17/47/15 5/46/15 4/45/15
f 17/52/16 18/51/16 6/50/16 5/49/16
f 18/56/17 19/55/17 7/54/17 6/53/17
f 19/60/18 20/59/18 8/58/18 7/57/18
f 20/64/19 21/63/19 9/62/19 8/61/19
f 21/68/20 22/67/20 10/66/20 9/65/20
f 22/72/21 23/71/21 11/70/21 10/69/21
f 23/76/22 24/75/22 12/74/22 11/73/22
f 24/80/23 25/79/23 13/78/23 12/77/23
f 25/84/24 15/83/24 3/82/24 13/81/24
f 27/88/25 26/87/25 14/86/25 15/85/25
f 26/92/26 28/91/26 16/90/26 14/89/26
f 28/96/27 29/95/27 17/94/27 16/93/27
f 29/100/28 30/99/28 18/98/28 17/97/28
f 30/104/29 31/103/29 19/102/29 18/101/29
f 31/108/30 32/107/30 20/106/30 19/105/30
f 32/112/31 33/111/31 21/110/31 20/109/31
f 33/116/32 34/115/32 22/114/32 21/113/32
f 34/120/33 35/119/33 23/118/33 22/117/33
f 35/124/34 36/123/34 24/122/34 23/121/34
f 36/128/35 37/127/35 25/126/35 24/125/35
f 37/132/36 27/131/36 15/130/36 25/129/36
f 39/136/37 38/135/37 26/134/37 27/133/37
f 38/140/38 40/139/38 28/138/38 26/137/38
f 40/144/39 41/143/39 29/142/39 28/141/39
f 41/148/40 42/147/40 30/146/40 29/145/40
f 42/152/41 43/151/41 31/150/41 30/149/41
f 43/155/42 32/154/42 31/153/42
f 45/159/43 44/158/43 33/157/43 32/156/43
f 44/163/44 46/162/44 34/161/44 33/160/44
f 48/166/45 47/165/45 34/164/45
f 49/169/46 36/168/46 35/167/46
f 49/173/47 50/172/47 37/171/47 36/170/47
f 50/177/48 39/176/48 27/175/48 37/174/48
f 52/181/49 51/180/49 38/179/49 39/178/49
f 51/185/50 53/184/50 40/183/50 38/182/50
f 53/189/51 54/188/51 41/187/51 40/186/51
f 54/193/52 55/192/52 42/191/52 41/190/52
f 55/197/53 56/196/53 43/195/53 42/194/53
f 56/201/54 57/200/54 45/199/54 43/198/54
f 57/205/55 58/204/55 44/203/55 45/202/55
f 67/217/58 66/216/58 49/215/58 65/214/58
f 66/221/59 68/220/59 50/219/59 49/218/59
f 68/225/60 52/224/60 39/223/60 50/222/60
f 70/229/61 69/228/61 51/227/61 52/226/61
f 69/233/62 71/232/62 53/231/62 51/230/62
f 71/237/63 72/236/63 54/235/63 53/234/63
f 72/241/64 73/240/64 55/239/64 54/238/64
f 73/245/65 74/244/65 56/243/65 55/242/65
f 74/248/66 75/247/66 56/246/66
f 75/252/67 76/251/67 58/250/67 57/249/67
f 76/256/68 78/255/68 77/254/68 58/253/68
f 82/264/70 81/263/70 66/262/70
f 81/268/71 83/267/71 68/266/71 66/265/71
f 83/272/72 70/271/72 52/270/72 68/269/72
f 85/276/73 84/275/73 69/274/73 70/273/73
f 84/279/74 71/278/74 69/277/74
f 87/283/75 86/282/75 72/281/75 71/280/75
f 86/287/76 88/286/76 73/285/76 72/284/76
f 89/290/77 74/289/77 73/288/77
f 89/294/78 90/293/78 75/292/78 74/291/78
f 90/298/79 91/297/79 76/296/79 75/295/79
f 91/302/80 92/301/80 78/300/80 76/299/80
f 92/306/81 93/305/81 82/304/81 78/303/81
f 93/310/82 94/309/82 81/308/82 82/307/82
f 94/314/83 95/313/83 83/312/83 81/311/83
f 95/318/84 85/317/84 70/316/84 83/315/84
f 97/322/85 96/321/85 84/320/85 85/319/85
f 96/325/86 98/324/86 84/323/86
f 98/329/87 99/328/87 86/327/87 87/326/87
f 99/333/88 100/332/88 88/331/88 86/330/88
f 100/336/89 89/335/89 88/334/89
f 102/340/90 101/339/90 90/338/90 89/337/90
f 101/344/91 103/343/91 91/342/91 90/341/91
f 103/348/92 104/347/92 92/346/92 91/345/92
f 104/352/93 105/351/93 93/350/93 92/349/93
f 105/356/94 106/355/94 94/354/94 93/353/94
f 106/360/95 107/359/95 95/358/95 94/357/95
f 107/364/96 97/363/96 85/362/96 95/361/96
f 108/367/97 96/366/97 97/365/97
f 108/370/98 98/369/98 96/368/98
f 108/373/99 99/372/99 98/371/99
f 108/376/100 100/375/100 99/374/100
f 108/379/101 102/378/101 100/377/101
f 108/382/102 101/381/102 102/380/102
f 108/385/103 103/384/103 101/383/103
f 108/388/104 104/387/104 103/386/104
f 108/391/105 105/390/105 104/389/105
f 108/394/106 106/393/106 105/392/106
f 108/397/107 107/396/107 106/395/107
f 108/400/108 97/399/108 107/398/108
f 46/403/109 48/402/109 34/401/109
f 35/406/110 65/405/110 49/404/110
f 66/409/111 67/408/111 82/407/111
f 43/417/113 45/416/113 32/415/113
f 75/420/114 57/419/114 56/418/114
f 100/423/115 102/422/115 89/421/115
f 73/426/116 88/425/116 89/424/116
f 84/429/117 87/428/117 71/427/117
f 98/432/118 87/431/118 84/430/118
f 47/436/119 65/435/119 35/434/119 34/433/119
f 79/440/120 78/439/120 82/438/120 67/437/120
f 77/461/125 78/460/125 80/459/125
f 80/464/126 78/463/126 79/462/126
usemtl mat18
f 58/209/56 60/208/56 59/207/56 44/206/56
f 80/261/69 79/260/69 67/259/69 63/258/69 64/257/69
f 77/414/112 80/413/112 64/412/112 60/411/112 58/410/112
f 63/448/122 67/447/122 65/446/122 62/445/122
f 46/453/123 44/452/123 59/451/123 61/450/123 48/449/123
f 48/458/124 61/457/124 62/456/124 65/455/124 47/454/124
usemtl mat21
f 64/213/57 63/212/57 62/211/57 61/210/57
f 60/444/121 64/443/121 61/442/121 59/441/121
